<svg width="80" height="80" viewBox="0 0 80 80" fill="none" xmlns="http://www.w3.org/2000/svg">
<circle cx="40" cy="40" r="40" fill="#03AB5A"/>
<path fill-rule="evenodd" clip-rule="evenodd" d="M55.4167 24H25.9167C23.2051 24 21 25.8429 21 28.1089V46.597C21 48.8631 23.2051 50.706 25.9167 50.706H35.75V52.7604C35.75 52.7625 35.75 52.7625 35.75 52.7625H25.9142V56.8714H55.4142V52.7625H45.5833C45.5833 52.7625 45.5833 52.7625 45.5833 52.7604V50.706H55.4167C58.1257 50.706 60.3333 48.8631 60.3333 46.597V28.1089C60.3333 25.8429 58.1257 24 55.4167 24ZM40.6667 52.7625C40.6667 52.7625 40.6667 52.7625 40.6667 52.7605C40.6667 52.7625 40.6667 52.7625 40.6667 52.7625ZM25.9167 46.597V28.1089H55.4167L55.4216 46.597H25.9167Z" fill="#F7F7F7"/>
</svg>
