<svg width="80" height="80" viewBox="0 0 80 80" fill="none" xmlns="http://www.w3.org/2000/svg">
<circle cx="40" cy="40" r="40" fill="#FDD78E"/>
<path fill-rule="evenodd" clip-rule="evenodd" d="M61 41.316C61 49.9706 53.9335 57.0134 45.25 57.0134H34.75C26.0639 57.0134 19 49.9706 19 41.316C19 32.6587 26.0639 25.6158 34.75 25.6158H40C41.449 25.6158 42.625 26.7866 42.625 28.233C42.625 29.6793 41.449 30.8501 40 30.8501H34.75C28.9592 30.8501 24.25 35.5436 24.25 41.316C24.25 47.0857 28.9592 51.7818 34.75 51.7818H45.25C51.0407 51.7818 55.75 47.0857 55.75 41.316C55.75 39.8696 56.9233 38.6988 58.375 38.6988C59.8266 38.6988 61 39.8696 61 41.316ZM38.341 40.0323L55.0439 23.3819C55.5584 22.8727 56.3879 22.8727 56.8998 23.3819L60.6141 27.0832C60.8609 27.3273 61 27.6607 61 28.0072C61 28.3563 60.8609 28.6871 60.6141 28.9338L43.9086 45.5868C43.7669 45.7312 43.5884 45.8388 43.3968 45.9044L37.8318 47.7498C37.6953 47.7918 37.5535 47.8154 37.4144 47.8154C37.0731 47.8154 36.7371 47.6815 36.4878 47.4322C36.136 47.083 36.0126 46.5633 36.1701 46.0934L38.0234 40.5442C38.0864 40.3526 38.1966 40.1767 38.341 40.0323ZM42.9794 39.1083L44.8352 40.9563C44.8379 40.9589 44.8379 40.9589 44.8379 40.9589L57.8316 28.0072L55.9731 26.1565L42.9794 39.1083ZM39.4907 44.4397L42.2732 43.5183L42.982 42.8095C42.982 42.8069 42.982 42.8069 42.982 42.8069L41.1261 40.9563L40.4173 41.6624L39.4907 44.4397Z" fill="#F7F7F7"/>
</svg>
