<svg width="20" height="18" viewBox="0 0 20 18" fill="none" xmlns="http://www.w3.org/2000/svg">
<path opacity="0.4" d="M19.1246 5.05279V12.9472C19.1291 14.2841 18.6245 15.568 17.7221 16.5159C16.8196 17.4637 15.5934 17.9976 14.3137 18H4.8364C3.55449 18.0023 2.32431 17.472 1.41706 16.5258C0.509817 15.5796 -1.9867e-06 14.2954 0 12.9561V5.05279C0.000698106 4.46466 0.101429 3.88135 0.297494 3.33004C0.988353 1.33226 2.8032 0.000767554 4.8364 7.9516e-07H14.2882C16.3462 -0.00120131 18.1787 1.36068 18.8526 3.3922C19.0396 3.92373 19.1318 4.48655 19.1246 5.05279Z" fill="white"/>
<path d="M18.8526 3.40108L18.7591 3.481C16.9996 4.9107 11.3048 9.69707 11.3048 9.69707C10.3145 10.5384 8.89509 10.5384 7.90483 9.69707C7.90483 9.69707 2.24395 4.91958 0.484481 3.48988L0.297485 3.33892C0.985505 1.33763 2.801 0.00211652 4.83639 0H14.2882C16.3484 0.000105848 18.1816 1.36605 18.8526 3.40108Z" fill="white"/>
</svg>
