<svg width="19" height="20" viewBox="0 0 19 20" fill="none" xmlns="http://www.w3.org/2000/svg">
<path d="M6.83122 18.7821V15.7152C6.8312 14.9381 7.43551 14.3067 8.18403 14.3018H10.9325C11.6843 14.3018 12.2938 14.9346 12.2938 15.7152V18.7732C12.2938 19.4473 12.8176 19.9951 13.4668 20H15.3419C16.2177 20.0023 17.0583 19.6428 17.6784 19.0007C18.2984 18.3586 18.6469 17.4868 18.6469 16.5775V7.86585C18.6469 7.13139 18.3333 6.43471 17.7907 5.9635L11.4205 0.674268C10.307 -0.250877 8.7166 -0.220992 7.63605 0.745384L1.40285 5.9635C0.834583 6.42082 0.494934 7.11956 0.478149 7.86585V16.5686C0.478149 18.4637 1.95783 20 3.78311 20H5.6154C5.92798 20.0023 6.22855 19.8751 6.45038 19.6464C6.67222 19.4178 6.79698 19.1067 6.79697 18.7821H6.83122Z" fill="white"/>
</svg>
