<svg width="80" height="80" viewBox="0 0 80 80" fill="none" xmlns="http://www.w3.org/2000/svg">
<circle cx="40" cy="40" r="40" fill="#FFD7D7"/>
<path fill-rule="evenodd" clip-rule="evenodd" d="M40 18C27.8698 18 18 27.8698 18 40C18 52.1302 27.8698 62 40 62C52.1302 62 62 52.1302 62 40C62 27.8698 52.1302 18 40 18ZM40 56.5C30.9002 56.5 23.5 49.0998 23.5 40C23.5 30.9002 30.9002 23.5 40 23.5C49.097 23.5 56.5 30.9002 56.5 40C56.5 49.0998 49.097 56.5 40 56.5ZM40 37.25C37.5497 37.25 37.4782 35.919 35.7017 35.919C34.3708 35.919 34.5 37.9375 34.5 38.7983C34.5 39.6562 33.73 40 33.0095 40C31.7747 40 29 38.3665 29 34.731C29 29.3878 34.1562 26.25 38.9247 26.25C41.001 26.25 45.4422 27.669 45.4422 31.75C45.4422 35.1022 42.1477 37.25 40 37.25ZM53.75 41.375C53.75 47.1747 46.875 53.75 40.0413 53.75C39.5683 53.75 38.625 53.321 38.625 52.2897C38.625 50.9147 44.125 48.0795 44.125 45.2415C44.125 43.3522 42.75 43.8253 42.75 41.4603C42.75 38.7103 45.8438 37.25 48.2913 37.25C50.7415 37.25 53.75 38.4958 53.75 41.375Z" fill="#F7F7F7"/>
</svg>
