<svg width="47" height="125" viewBox="0 0 47 125" fill="none" xmlns="http://www.w3.org/2000/svg">
<g opacity="0.2">
<path opacity="0.2" d="M44.1702 68.605C44.8675 68.7246 45.5749 68.7246 46.2423 68.7246C45.2362 67.3598 43.5526 67.0211 42.4568 65.6065C42.3373 65.4571 42.2775 65.2678 42.2177 65.1084C41.7894 63.9628 41.3909 62.9168 41.3909 62.9168L41.2116 62.4486H1.21466H0.417725L1.79247 64.3613C1.88212 64.4808 2.00166 64.6103 2.10128 64.7299C2.13117 64.7597 2.16105 64.7897 2.16105 64.8195C2.28059 64.9391 2.37022 65.0387 2.49972 65.1582C2.52961 65.1881 2.55949 65.1881 2.55949 65.218C2.67903 65.3077 2.76872 65.4073 2.89822 65.4969C2.92811 65.4969 2.9281 65.5268 2.95799 65.5268C3.07753 65.6165 3.22698 65.7161 3.35649 65.7759C11.1467 68.6847 19.5644 63.923 26.6473 69.0234C26.986 69.3621 24.635 70.7269 24.5453 72.4503C24.5752 72.6695 24.6051 72.9185 24.635 73.1277L3.90438 74.891C3.90438 75.1101 4.08368 75.2297 4.33273 75.2297L4.76108 75.1998C5.24921 76.0366 5.70747 76.8734 6.13583 77.7301C6.22548 77.8895 6.31516 78.0688 6.34505 78.2581C5.39867 80.9777 7.74968 82.3424 9.1543 83.8865C9.24396 84.0758 9.30372 84.2252 9.39338 84.4145C9.60257 84.8827 9.82172 85.341 10.001 85.8092C10.2102 86.2774 10.3098 86.7655 9.91135 87.3234C9.42322 88.1303 9.08454 88.469 8.7558 89.1464C8.4171 90.8499 10.7681 90.5112 11.6846 91.4675C12.352 91.8361 12.6011 92.2744 12.7505 92.7327C12.9298 93.2009 13.0892 93.6591 13.2386 94.0974C13.2685 94.466 13.2984 94.8047 13.2087 95.1833C12.4118 96.6377 12.7505 98.7098 14.2747 99.3573C14.703 99.6661 14.972 100.005 15.3107 100.314C15.49 100.901 15.6793 101.489 15.8287 102.047C15.9184 102.236 15.9782 102.416 16.0379 102.605C16.7452 104.119 16.7452 105.823 17.2632 107.028C17.2931 107.217 17.3529 107.367 17.3529 107.556C17.9008 109.598 18.359 111.511 18.7575 113.304C18.8471 113.643 18.9069 114.011 18.9667 114.35C18.0801 116.083 18.4188 117.438 19.9131 118.952C19.9729 119.231 20.0326 119.48 20.0924 119.729C20.5507 122.26 20.8196 124.023 20.9193 124.67C20.8894 123.525 20.979 121.791 21.1384 119.6C20.989 119.381 20.8993 119.132 20.71 118.922C20.1323 117.777 18.4487 117.438 18.7874 116.761C18.7874 115.745 20.471 115.057 21.2878 113.822C21.507 113.483 21.6265 113.174 21.7461 112.866C21.8955 111.292 22.0848 109.648 22.2641 107.954C22.294 107.795 22.294 107.646 22.3239 107.486C24.8243 105.195 25.5017 103.84 23.061 101.091C23.061 100.941 23.0909 100.752 23.1208 100.593C23.1507 100.254 23.2104 99.9152 23.2403 99.6064C23.2403 99.6064 23.2105 100.005 23.1507 100.692C23.1507 100.881 23.1208 101.061 23.1208 101.25C25.5316 103.85 25.1929 105.544 22.5729 107.556C22.543 107.745 22.5131 107.925 22.5131 108.114C22.3936 109.598 22.2342 111.172 22.1146 112.746C22.0848 112.935 22.0549 113.085 22.025 113.274C19.4947 115.774 18.1499 117.478 21.4771 120.008C21.4472 120.287 21.4174 120.566 21.4174 120.815C21.1982 123.166 21.0786 124.71 21.0786 124.71H21.507C21.507 124.71 21.7162 122.419 21.9353 119.978C21.8756 119.789 21.8457 119.61 21.756 119.45C21.2081 118.524 19.5246 117.847 19.5246 117.159C19.5246 115.804 21.5368 114.778 22.6725 113.513C22.7622 113.364 22.8519 113.204 22.9116 113.055C23.34 112.009 24.107 110.246 25.0136 108.014C25.0733 107.855 25.1331 107.705 25.2227 107.546C27.2649 105.195 30.2934 104.856 27.8826 101.33C27.9125 101.14 28.0021 100.961 28.0918 100.742C28.1814 100.523 28.2412 100.373 28.3309 100.154C28.3907 99.9949 28.4504 99.8454 28.5102 99.686C28.9386 98.7297 27.9324 98.0423 27.9324 97.3649C27.9324 95.6615 30.6221 94.9841 31.1999 93.3503C31.2596 93.1909 31.3493 93.0116 31.419 92.8522C31.8474 91.866 32.2757 90.8399 32.7041 89.8537C32.7938 89.6046 32.9133 89.3556 33.0129 89.1065C32.6742 87.164 29.9646 87.5027 29.9646 86.8153C29.9646 84.0957 34.3279 84.7731 35.7624 82.5516C35.8521 82.3026 35.9417 82.0834 36.0712 81.8742C36.38 81.1968 36.649 80.5095 36.9279 79.832C36.9279 79.6727 36.9579 79.5531 36.9878 79.4037C37.0475 77.9493 37.3862 76.9331 38.4521 76.0963C38.5418 75.9768 38.6015 75.8473 38.6912 75.6979C39.269 74.3032 39.787 73.0679 40.2452 72.0518C40.3349 71.8327 40.4246 71.6534 40.5242 71.4342C41.7794 70.4779 42.7855 69.4219 43.971 68.7744C44.1403 68.6349 44.1702 68.605 44.1702 68.605ZM26.7967 67.7085C30.0642 67.7085 33.4512 67.7085 36.8084 68.3859C33.4512 68.0472 30.0642 69.402 26.7967 68.2962C26.7967 67.9874 26.7967 67.7085 26.7967 67.7085ZM23.7384 85.3609C20.6204 87.1241 23.9775 88.5088 25.1431 90.2721C25.2029 90.7005 25.1729 91.1388 25.1729 91.5372C25.1431 91.9656 25.1431 92.4039 25.1132 92.8323C25.0833 93.4798 25.0534 94.1273 24.1369 94.8147C22.9813 95.3128 21.9652 96.3289 21.6365 97.0063C20.969 99.0485 24.3262 98.3611 24.625 100.344C24.625 100.503 24.5952 100.652 24.5952 100.812C24.5952 100.971 24.5653 101.121 24.5653 101.24C26.3385 103.8 25.9998 105.195 23.8281 107.606C23.7982 107.885 23.7385 108.164 23.7086 108.413C23.4994 109.927 23.2503 111.252 23.0013 112.338C22.9415 112.557 22.9116 112.766 22.8519 112.955C22.9714 113.692 22.6327 114.041 21.9652 114.041C22.3039 113.702 22.6327 113.364 22.6327 113.115C22.6626 112.896 22.6626 112.686 22.6924 112.437C22.7821 111.421 22.9016 109.967 23.061 108.293C23.061 108.144 23.0909 107.954 23.0909 107.765C25.3224 105.514 26.3285 103.81 23.6687 101.001C23.6687 100.812 23.6986 100.603 23.6986 100.413C23.6986 100.015 23.6687 99.6362 23.5491 99.2677C22.294 98.0324 22.6327 96.3289 23.8879 94.9143C24.2864 94.2369 24.3461 93.5894 24.4059 93.0016C24.4657 92.2246 24.5254 91.5173 24.5852 90.9595C24.645 90.3717 24.5852 89.9433 24.3461 89.6345C22.9714 88.8276 20.9591 87.4728 22.8519 86.0782C23.1308 85.849 23.4396 85.6 23.7384 85.3609Z" fill="black"/>
</g>
<path d="M27.0955 0.206848H26.6672V58.2148H27.0955V0.206848Z" fill="#D5CDC3"/>
<path d="M44.1005 56.1826L43.8913 56.6508L41.2016 62.4586H0.417725L1.97177 60.5459C2.97792 59.3106 4.41241 58.5635 5.99634 58.4738L44.1005 56.1826Z" fill="#DF4158"/>
<path d="M43.8913 56.6408L41.2016 62.4486C19.3452 62.4486 0.776294 62.4486 1.20465 62.4486L2.43001 60.9643C3.43615 59.729 4.87064 58.9918 6.45458 58.8922L43.8913 56.6408Z" fill="#C53546"/>
<path d="M27.0955 10.8063L42.5166 57.0393L24.5354 55.6147C28.0818 46.2008 28.809 17.9788 27.0955 10.8063Z" fill="white"/>
<path d="M43.0345 57.3581C42.8552 57.3581 24.2564 55.8439 23.9874 55.814C24.0173 55.5948 24.1966 55.4155 24.4158 55.4454C26.8863 55.6646 40.1954 56.7404 42.6759 56.9297C42.8851 56.9198 43.0644 57.109 43.0345 57.3581Z" fill="#545451"/>
<path d="M28.6895 51.889L5.85693 49.9066C5.88682 49.8468 5.94659 49.7871 5.97647 49.7173C19.9928 28.2993 25.9102 3.13564 26.5876 0.206848C25.6412 8.61466 27.6236 51.64 28.2612 51.6001C28.4405 51.6101 28.6596 51.889 28.6895 51.889Z" fill="#E5E5E5"/>
<path d="M28.4703 51.6101L5.5381 49.6675C5.3289 49.6376 5.10972 49.787 5.07983 50.0062L28.6197 52.0185L28.6496 51.8292C28.6894 51.7296 28.5998 51.64 28.4703 51.6101Z" fill="#545451"/>
<path opacity="0.35" d="M41.4207 62.0202L41.2016 62.4884H1.21466H0.417725L1.97177 60.5758C2.57945 59.8386 3.37638 59.2508 4.26299 58.9121C4.51204 59.0018 4.78099 59.1014 5.1197 59.191C8.72589 60.1673 18.0602 61.7413 41.4207 62.0202Z" fill="black"/>
</svg>
