<svg width="39" height="36" viewBox="0 0 39 36" fill="none" xmlns="http://www.w3.org/2000/svg">
<path d="M15.1585 6.42578C12.0213 7.01823 9.81612 9.29688 8.54303 13.2617C7.90649 15.2214 7.58822 17.1582 7.58822 19.0723C7.58822 19.3001 7.58822 19.5052 7.58822 19.6875C7.63369 19.8242 7.67915 20.166 7.72462 20.7129H15.1585V35.6152H0.631714V21.875C0.631714 15.1302 1.973 9.9349 4.65557 6.28906C7.33815 2.64323 10.8391 0.546875 15.1585 0V6.42578ZM38.1423 6.42578C35.6416 6.83594 33.7319 8.2487 32.4134 10.6641C31.1403 13.0794 30.5038 15.8594 30.5038 19.0039C30.5038 19.2773 30.5038 19.5508 30.5038 19.8242C30.5492 20.0977 30.6174 20.3939 30.7084 20.7129H38.1423V35.6152H23.5473V21.875C23.5473 16.4518 24.6839 11.6211 26.9573 7.38281C29.2307 3.09896 32.959 0.638021 38.1423 0V6.42578Z" fill="black"/>
</svg>
