<svg width="411" height="266" viewBox="0 0 411 266" fill="none" xmlns="http://www.w3.org/2000/svg">
<circle cx="193" cy="133" r="133" fill="#FDD78E"/>
<circle cx="5" cy="149" r="4.5" fill="white" stroke="#03AB5A"/>
<circle cx="406" cy="149" r="4.5" fill="white" stroke="#03AB5A"/>
<g filter="url(#filter0_d)">
<rect x="271" y="57" width="110" height="152" rx="16" fill="white"/>
</g>
<path d="M129.029 16C126.695 23.8333 126.829 41.7 146.029 50.5C165.229 59.3 171.362 72.8333 172.029 78.5" stroke="#BB964C" stroke-width="2"/>
<circle cx="129" cy="16" r="4.5" fill="white" stroke="#03AB5A"/>
<path d="M285.852 165.523H279.758V167.969H285.352V169.969H279.758V172.93H286.133V175H277.406V163.484H285.852V165.523ZM287.156 169.484H291.641V171.594H287.156V169.484ZM292.836 169.336C292.836 167.326 293.375 165.776 294.453 164.688C295.391 163.74 296.583 163.266 298.031 163.266C299.969 163.266 301.385 163.901 302.281 165.172C302.776 165.885 303.042 166.602 303.078 167.32H300.672C300.516 166.768 300.315 166.352 300.07 166.07C299.633 165.57 298.984 165.32 298.125 165.32C297.25 165.32 296.56 165.674 296.055 166.383C295.549 167.086 295.297 168.083 295.297 169.375C295.297 170.667 295.562 171.635 296.094 172.281C296.63 172.922 297.31 173.242 298.133 173.242C298.977 173.242 299.62 172.966 300.062 172.414C300.307 172.117 300.51 171.672 300.672 171.078H303.055C302.846 172.333 302.312 173.354 301.453 174.141C300.599 174.927 299.503 175.32 298.164 175.32C296.508 175.32 295.206 174.789 294.258 173.727C293.31 172.659 292.836 171.195 292.836 169.336ZM308.539 173.43C309.19 173.43 309.69 173.198 310.039 172.734C310.388 172.271 310.562 171.612 310.562 170.758C310.562 169.904 310.388 169.247 310.039 168.789C309.69 168.326 309.19 168.094 308.539 168.094C307.888 168.094 307.385 168.326 307.031 168.789C306.682 169.247 306.508 169.904 306.508 170.758C306.508 171.612 306.682 172.271 307.031 172.734C307.385 173.198 307.888 173.43 308.539 173.43ZM312.898 170.758C312.898 172.008 312.539 173.078 311.82 173.969C311.102 174.854 310.01 175.297 308.547 175.297C307.083 175.297 305.992 174.854 305.273 173.969C304.555 173.078 304.195 172.008 304.195 170.758C304.195 169.529 304.555 168.464 305.273 167.562C305.992 166.661 307.083 166.211 308.547 166.211C310.01 166.211 311.102 166.661 311.82 167.562C312.539 168.464 312.898 169.529 312.898 170.758ZM324.016 166.297C324.391 166.297 324.76 166.37 325.125 166.516C325.49 166.661 325.82 166.917 326.117 167.281C326.357 167.578 326.518 167.943 326.602 168.375C326.654 168.661 326.68 169.081 326.68 169.633L326.664 175H324.383V169.578C324.383 169.255 324.331 168.99 324.227 168.781C324.029 168.385 323.664 168.188 323.133 168.188C322.518 168.188 322.094 168.443 321.859 168.953C321.74 169.224 321.68 169.549 321.68 169.93V175H319.438V169.93C319.438 169.424 319.385 169.057 319.281 168.828C319.094 168.417 318.727 168.211 318.18 168.211C317.544 168.211 317.117 168.417 316.898 168.828C316.779 169.062 316.719 169.411 316.719 169.875V175H314.461V166.5H316.625V167.742C316.901 167.299 317.161 166.984 317.406 166.797C317.839 166.464 318.398 166.297 319.086 166.297C319.737 166.297 320.263 166.44 320.664 166.727C320.987 166.992 321.232 167.333 321.398 167.75C321.69 167.25 322.052 166.883 322.484 166.648C322.943 166.414 323.453 166.297 324.016 166.297ZM338.25 166.297C338.625 166.297 338.995 166.37 339.359 166.516C339.724 166.661 340.055 166.917 340.352 167.281C340.591 167.578 340.753 167.943 340.836 168.375C340.888 168.661 340.914 169.081 340.914 169.633L340.898 175H338.617V169.578C338.617 169.255 338.565 168.99 338.461 168.781C338.263 168.385 337.898 168.188 337.367 168.188C336.753 168.188 336.328 168.443 336.094 168.953C335.974 169.224 335.914 169.549 335.914 169.93V175H333.672V169.93C333.672 169.424 333.62 169.057 333.516 168.828C333.328 168.417 332.961 168.211 332.414 168.211C331.779 168.211 331.352 168.417 331.133 168.828C331.013 169.062 330.953 169.411 330.953 169.875V175H328.695V166.5H330.859V167.742C331.135 167.299 331.396 166.984 331.641 166.797C332.073 166.464 332.633 166.297 333.32 166.297C333.971 166.297 334.497 166.44 334.898 166.727C335.221 166.992 335.466 167.333 335.633 167.75C335.924 167.25 336.286 166.883 336.719 166.648C337.177 166.414 337.688 166.297 338.25 166.297ZM346.328 168.094C345.812 168.094 345.411 168.255 345.125 168.578C344.844 168.901 344.667 169.339 344.594 169.891H348.055C348.018 169.302 347.839 168.857 347.516 168.555C347.198 168.247 346.802 168.094 346.328 168.094ZM346.328 166.258C347.036 166.258 347.674 166.391 348.242 166.656C348.81 166.922 349.279 167.341 349.648 167.914C349.982 168.419 350.198 169.005 350.297 169.672C350.354 170.062 350.378 170.625 350.367 171.359H344.539C344.57 172.214 344.839 172.812 345.344 173.156C345.651 173.37 346.021 173.477 346.453 173.477C346.911 173.477 347.284 173.346 347.57 173.086C347.727 172.945 347.865 172.75 347.984 172.5H350.258C350.201 173.005 349.938 173.518 349.469 174.039C348.74 174.867 347.719 175.281 346.406 175.281C345.323 175.281 344.367 174.932 343.539 174.234C342.711 173.536 342.297 172.401 342.297 170.828C342.297 169.354 342.669 168.224 343.414 167.438C344.164 166.651 345.135 166.258 346.328 166.258ZM356.5 166.281C356.542 166.281 356.576 166.284 356.602 166.289C356.633 166.289 356.698 166.292 356.797 166.297V168.578C356.656 168.562 356.531 168.552 356.422 168.547C356.312 168.542 356.224 168.539 356.156 168.539C355.26 168.539 354.659 168.831 354.352 169.414C354.18 169.742 354.094 170.247 354.094 170.93V175H351.852V166.484H353.977V167.969C354.32 167.401 354.62 167.013 354.875 166.805C355.292 166.456 355.833 166.281 356.5 166.281ZM363.195 169.539C363.154 169.221 363.047 168.935 362.875 168.68C362.625 168.336 362.237 168.164 361.711 168.164C360.961 168.164 360.448 168.536 360.172 169.281C360.026 169.677 359.953 170.203 359.953 170.859C359.953 171.484 360.026 171.987 360.172 172.367C360.438 173.076 360.938 173.43 361.672 173.43C362.193 173.43 362.562 173.289 362.781 173.008C363 172.727 363.133 172.362 363.18 171.914H365.453C365.401 172.591 365.156 173.232 364.719 173.836C364.021 174.81 362.987 175.297 361.617 175.297C360.247 175.297 359.24 174.891 358.594 174.078C357.948 173.266 357.625 172.211 357.625 170.914C357.625 169.451 357.982 168.312 358.695 167.5C359.409 166.688 360.393 166.281 361.648 166.281C362.716 166.281 363.589 166.521 364.266 167C364.948 167.479 365.352 168.326 365.477 169.539H363.195ZM370.375 168.094C369.859 168.094 369.458 168.255 369.172 168.578C368.891 168.901 368.714 169.339 368.641 169.891H372.102C372.065 169.302 371.885 168.857 371.562 168.555C371.245 168.247 370.849 168.094 370.375 168.094ZM370.375 166.258C371.083 166.258 371.721 166.391 372.289 166.656C372.857 166.922 373.326 167.341 373.695 167.914C374.029 168.419 374.245 169.005 374.344 169.672C374.401 170.062 374.424 170.625 374.414 171.359H368.586C368.617 172.214 368.885 172.812 369.391 173.156C369.698 173.37 370.068 173.477 370.5 173.477C370.958 173.477 371.331 173.346 371.617 173.086C371.773 172.945 371.911 172.75 372.031 172.5H374.305C374.247 173.005 373.984 173.518 373.516 174.039C372.786 174.867 371.766 175.281 370.453 175.281C369.37 175.281 368.414 174.932 367.586 174.234C366.758 173.536 366.344 172.401 366.344 170.828C366.344 169.354 366.716 168.224 367.461 167.438C368.211 166.651 369.182 166.258 370.375 166.258ZM296.445 189.445C296.518 189.971 296.661 190.365 296.875 190.625C297.266 191.099 297.935 191.336 298.883 191.336C299.451 191.336 299.911 191.273 300.266 191.148C300.938 190.909 301.273 190.464 301.273 189.812C301.273 189.432 301.107 189.138 300.773 188.93C300.44 188.727 299.917 188.547 299.203 188.391L297.984 188.117C296.786 187.846 295.958 187.552 295.5 187.234C294.724 186.703 294.336 185.872 294.336 184.742C294.336 183.711 294.711 182.854 295.461 182.172C296.211 181.49 297.312 181.148 298.766 181.148C299.979 181.148 301.013 181.471 301.867 182.117C302.727 182.758 303.177 183.69 303.219 184.914H300.906C300.865 184.221 300.562 183.729 300 183.438C299.625 183.245 299.159 183.148 298.602 183.148C297.982 183.148 297.487 183.273 297.117 183.523C296.747 183.773 296.562 184.122 296.562 184.57C296.562 184.982 296.745 185.289 297.109 185.492C297.344 185.628 297.844 185.786 298.609 185.969L300.594 186.445C301.464 186.654 302.12 186.932 302.562 187.281C303.25 187.823 303.594 188.607 303.594 189.633C303.594 190.685 303.19 191.56 302.383 192.258C301.581 192.951 300.445 193.297 298.977 193.297C297.477 193.297 296.297 192.956 295.438 192.273C294.578 191.586 294.148 190.643 294.148 189.445H296.445ZM309.016 191.43C309.667 191.43 310.167 191.198 310.516 190.734C310.865 190.271 311.039 189.612 311.039 188.758C311.039 187.904 310.865 187.247 310.516 186.789C310.167 186.326 309.667 186.094 309.016 186.094C308.365 186.094 307.862 186.326 307.508 186.789C307.159 187.247 306.984 187.904 306.984 188.758C306.984 189.612 307.159 190.271 307.508 190.734C307.862 191.198 308.365 191.43 309.016 191.43ZM313.375 188.758C313.375 190.008 313.016 191.078 312.297 191.969C311.578 192.854 310.487 193.297 309.023 193.297C307.56 193.297 306.469 192.854 305.75 191.969C305.031 191.078 304.672 190.008 304.672 188.758C304.672 187.529 305.031 186.464 305.75 185.562C306.469 184.661 307.56 184.211 309.023 184.211C310.487 184.211 311.578 184.661 312.297 185.562C313.016 186.464 313.375 187.529 313.375 188.758ZM317.25 193H315.023V181.484H317.25V193ZM321.648 184.484V189.617C321.648 190.102 321.706 190.466 321.82 190.711C322.023 191.143 322.422 191.359 323.016 191.359C323.776 191.359 324.297 191.052 324.578 190.438C324.724 190.104 324.797 189.664 324.797 189.117V184.484H327.055V193H324.891V191.797C324.87 191.823 324.818 191.901 324.734 192.031C324.651 192.161 324.552 192.276 324.438 192.375C324.089 192.688 323.75 192.901 323.422 193.016C323.099 193.13 322.719 193.188 322.281 193.188C321.021 193.188 320.172 192.734 319.734 191.828C319.49 191.328 319.367 190.591 319.367 189.617V184.484H321.648ZM328.336 186.148V184.562H329.523V182.188H331.727V184.562H333.109V186.148H331.727V190.648C331.727 190.997 331.771 191.216 331.859 191.305C331.948 191.388 332.219 191.43 332.672 191.43C332.74 191.43 332.81 191.43 332.883 191.43C332.961 191.424 333.036 191.419 333.109 191.414V193.078L332.055 193.117C331.003 193.154 330.284 192.971 329.898 192.57C329.648 192.315 329.523 191.922 329.523 191.391V186.148H328.336ZM336.828 183.469H334.57V181.414H336.828V183.469ZM334.57 184.484H336.828V193H334.57V184.484ZM342.812 191.43C343.464 191.43 343.964 191.198 344.312 190.734C344.661 190.271 344.836 189.612 344.836 188.758C344.836 187.904 344.661 187.247 344.312 186.789C343.964 186.326 343.464 186.094 342.812 186.094C342.161 186.094 341.659 186.326 341.305 186.789C340.956 187.247 340.781 187.904 340.781 188.758C340.781 189.612 340.956 190.271 341.305 190.734C341.659 191.198 342.161 191.43 342.812 191.43ZM347.172 188.758C347.172 190.008 346.812 191.078 346.094 191.969C345.375 192.854 344.284 193.297 342.82 193.297C341.357 193.297 340.266 192.854 339.547 191.969C338.828 191.078 338.469 190.008 338.469 188.758C338.469 187.529 338.828 186.464 339.547 185.562C340.266 184.661 341.357 184.211 342.82 184.211C344.284 184.211 345.375 184.661 346.094 185.562C346.812 186.464 347.172 187.529 347.172 188.758ZM353.492 184.281C354.372 184.281 355.091 184.513 355.648 184.977C356.211 185.435 356.492 186.198 356.492 187.266V193H354.211V187.82C354.211 187.372 354.151 187.029 354.031 186.789C353.812 186.352 353.396 186.133 352.781 186.133C352.026 186.133 351.508 186.453 351.227 187.094C351.081 187.432 351.008 187.865 351.008 188.391V193H348.789V184.5H350.938V185.742C351.224 185.305 351.495 184.99 351.75 184.797C352.208 184.453 352.789 184.281 353.492 184.281Z" fill="#848484"/>
<g filter="url(#filter1_d)">
<rect x="31" y="98" width="80" height="80" rx="16" fill="white"/>
</g>
<path fill-rule="evenodd" clip-rule="evenodd" d="M71 117.983C65.486 117.983 61 122.472 61 127.991C61 133.507 65.486 137.997 71 137.997C76.514 137.997 81 133.507 81 127.991C81 122.472 76.514 117.983 71 117.983ZM71 133.994C67.69 133.994 65 131.302 65 127.991C65 124.679 67.69 121.985 71 121.985C74.308 121.985 77 124.679 77 127.991C77 131.302 74.308 133.994 71 133.994ZM87 127.989C87 128.527 86.78 129.048 86.4 129.408C86.038 129.768 85.52 129.989 85 129.989C84.48 129.989 83.958 129.788 83.58 129.408C83.218 129.028 83 128.527 83 127.989C83 127.466 83.218 126.947 83.58 126.567C84.34 125.825 85.66 125.825 86.42 126.567C86.78 126.947 87 127.466 87 127.989ZM58.42 126.567C58.778 126.947 59 127.466 59 127.989C59 128.507 58.778 129.028 58.42 129.408C58.04 129.768 57.518 129.989 57 129.989C56.48 129.989 55.958 129.768 55.58 129.408C55.218 129.028 55 128.527 55 127.989C55 127.448 55.218 126.947 55.58 126.567C56.32 125.825 57.66 125.825 58.42 126.567ZM72.42 140.578C72.778 140.958 73 141.477 73 142C73 142.518 72.778 143.039 72.42 143.419C72.038 143.799 71.52 144 71 144C70.48 144 69.958 143.799 69.58 143.419C69.2 143.039 69 142.518 69 142C69 141.477 69.2 140.958 69.58 140.578C70.32 139.836 71.66 139.836 72.42 140.578ZM69.58 115.397C69.2 115.017 69 114.496 69 113.978C69 113.455 69.2 112.936 69.58 112.556C70.34 111.815 71.66 111.815 72.42 112.556C72.778 112.936 73 113.455 73 113.978C73 114.496 72.778 115.017 72.42 115.397C72.038 115.757 71.52 115.978 71 115.978C70.48 115.978 69.958 115.757 69.58 115.397ZM82.32 116.658C82.68 117.04 82.9 117.56 82.9 118.079C82.9 118.6 82.68 119.121 82.32 119.501C81.938 119.86 81.44 120.082 80.9 120.082C80.378 120.082 79.86 119.86 79.48 119.501C79.118 119.121 78.9 118.62 78.9 118.079C78.9 117.56 79.118 117.04 79.48 116.658C80.218 115.918 81.56 115.918 82.32 116.658ZM62.52 136.473C62.878 136.855 63.098 137.376 63.098 137.894C63.098 138.417 62.878 138.936 62.52 139.316C62.138 139.678 61.618 139.897 61.1 139.897C60.58 139.897 60.06 139.678 59.68 139.316C59.32 138.936 59.1 138.417 59.1 137.894C59.1 137.376 59.32 136.855 59.68 136.473C60.44 135.733 61.778 135.733 62.52 136.473ZM82.32 136.473C82.68 136.855 82.9 137.376 82.9 137.894C82.9 138.417 82.68 138.936 82.32 139.316C81.938 139.678 81.42 139.897 80.9 139.897C80.378 139.897 79.86 139.678 79.48 139.316C79.118 138.936 78.9 138.417 78.9 137.894C78.9 137.355 79.118 136.855 79.48 136.473C80.218 135.733 81.56 135.733 82.32 136.473ZM59.68 119.501C59.32 119.121 59.1 118.6 59.1 118.079C59.1 117.56 59.32 117.04 59.68 116.658C60.44 115.918 61.778 115.918 62.52 116.658C62.878 117.04 63.098 117.56 63.098 118.079C63.098 118.6 62.878 119.121 62.52 119.501C62.138 119.86 61.618 120.082 61.1 120.082C60.58 120.082 60.06 119.86 59.68 119.501Z" fill="#FDD78E"/>
<path d="M52.5547 155.484V158.023H55.3828C55.888 158.023 56.2969 157.93 56.6094 157.742C56.9271 157.549 57.0859 157.211 57.0859 156.727C57.0859 156.19 56.8776 155.836 56.4609 155.664C56.1016 155.544 55.6432 155.484 55.0859 155.484H52.5547ZM52.5547 159.93V163H55.3828C55.888 163 56.2812 162.932 56.5625 162.797C57.0729 162.547 57.3281 162.068 57.3281 161.359C57.3281 160.76 57.0807 160.349 56.5859 160.125C56.3099 160 55.9219 159.935 55.4219 159.93H52.5547ZM55.8516 153.484C57.263 153.505 58.263 153.914 58.8516 154.711C59.2057 155.201 59.3828 155.786 59.3828 156.469C59.3828 157.172 59.2057 157.737 58.8516 158.164C58.6536 158.404 58.362 158.622 57.9766 158.82C58.5651 159.034 59.0078 159.372 59.3047 159.836C59.6068 160.299 59.7578 160.862 59.7578 161.523C59.7578 162.206 59.5859 162.818 59.2422 163.359C59.0234 163.719 58.75 164.021 58.4219 164.266C58.0521 164.547 57.6146 164.74 57.1094 164.844C56.6094 164.948 56.0651 165 55.4766 165H50.2578V153.484H55.8516ZM66.2266 156.281C66.2682 156.281 66.3021 156.284 66.3281 156.289C66.3594 156.289 66.4245 156.292 66.5234 156.297V158.578C66.3828 158.562 66.2578 158.552 66.1484 158.547C66.0391 158.542 65.9505 158.539 65.8828 158.539C64.987 158.539 64.3854 158.831 64.0781 159.414C63.9062 159.742 63.8203 160.247 63.8203 160.93V165H61.5781V156.484H63.7031V157.969C64.0469 157.401 64.3464 157.013 64.6016 156.805C65.0182 156.456 65.5599 156.281 66.2266 156.281ZM72.5312 160.859C72.3906 160.948 72.2474 161.021 72.1016 161.078C71.9609 161.13 71.7656 161.18 71.5156 161.227L71.0156 161.32C70.5469 161.404 70.2109 161.505 70.0078 161.625C69.6641 161.828 69.4922 162.143 69.4922 162.57C69.4922 162.951 69.5964 163.227 69.8047 163.398C70.0182 163.565 70.276 163.648 70.5781 163.648C71.0573 163.648 71.4974 163.508 71.8984 163.227C72.3047 162.945 72.5156 162.432 72.5312 161.688V160.859ZM71.1797 159.82C71.5911 159.768 71.8854 159.703 72.0625 159.625C72.3802 159.49 72.5391 159.279 72.5391 158.992C72.5391 158.643 72.4167 158.404 72.1719 158.273C71.9323 158.138 71.5781 158.07 71.1094 158.07C70.5833 158.07 70.2109 158.201 69.9922 158.461C69.8359 158.654 69.7318 158.914 69.6797 159.242H67.5312C67.5781 158.497 67.7865 157.885 68.1562 157.406C68.7448 156.656 69.7552 156.281 71.1875 156.281C72.1198 156.281 72.9479 156.466 73.6719 156.836C74.3958 157.206 74.7578 157.904 74.7578 158.93V162.836C74.7578 163.107 74.763 163.435 74.7734 163.82C74.7891 164.112 74.8333 164.31 74.9062 164.414C74.9792 164.518 75.0885 164.604 75.2344 164.672V165H72.8125C72.7448 164.828 72.6979 164.667 72.6719 164.516C72.6458 164.365 72.625 164.193 72.6094 164C72.3021 164.333 71.9479 164.617 71.5469 164.852C71.0677 165.128 70.526 165.266 69.9219 165.266C69.151 165.266 68.513 165.047 68.0078 164.609C67.5078 164.167 67.2578 163.542 67.2578 162.734C67.2578 161.688 67.6615 160.93 68.4688 160.461C68.9115 160.206 69.5625 160.023 70.4219 159.914L71.1797 159.82ZM81.4609 156.281C82.3411 156.281 83.0599 156.513 83.6172 156.977C84.1797 157.435 84.4609 158.198 84.4609 159.266V165H82.1797V159.82C82.1797 159.372 82.1198 159.029 82 158.789C81.7812 158.352 81.3646 158.133 80.75 158.133C79.9948 158.133 79.4766 158.453 79.1953 159.094C79.0495 159.432 78.9766 159.865 78.9766 160.391V165H76.7578V156.5H78.9062V157.742C79.1927 157.305 79.4635 156.99 79.7188 156.797C80.1771 156.453 80.7578 156.281 81.4609 156.281ZM89.6641 156.281C90.1797 156.281 90.638 156.396 91.0391 156.625C91.4401 156.849 91.7656 157.161 92.0156 157.562V153.5H94.2734V165H92.1094V163.82C91.7917 164.326 91.4297 164.693 91.0234 164.922C90.6172 165.151 90.112 165.266 89.5078 165.266C88.513 165.266 87.6745 164.865 86.9922 164.062C86.3151 163.255 85.9766 162.221 85.9766 160.961C85.9766 159.508 86.3099 158.365 86.9766 157.531C87.6484 156.698 88.5443 156.281 89.6641 156.281ZM90.1484 163.391C90.7786 163.391 91.2578 163.156 91.5859 162.688C91.9141 162.219 92.0781 161.612 92.0781 160.867C92.0781 159.826 91.8151 159.081 91.2891 158.633C90.9661 158.362 90.5911 158.227 90.1641 158.227C89.513 158.227 89.0339 158.474 88.7266 158.969C88.4245 159.458 88.2734 160.068 88.2734 160.797C88.2734 161.583 88.4271 162.214 88.7344 162.688C89.0469 163.156 89.5182 163.391 90.1484 163.391Z" fill="#848484"/>
<circle cx="326" cy="105" r="28" fill="#FFD7D7"/>
<path d="M4.5 149H406" stroke="#81AE80" stroke-width="2"/>
<g filter="url(#filter2_d)">
<rect x="134" y="74" width="110" height="124" rx="16" fill="white"/>
</g>
<path d="M145.789 163.484L147.312 170.078L147.641 171.914L147.977 170.117L149.273 163.484H151.812L153.18 170.078L153.531 171.914L153.883 170.148L155.422 163.484H157.867L154.625 175H152.328L150.938 168.266L150.531 166.039L150.125 168.266L148.734 175H146.5L143.234 163.484H145.789ZM162.227 168.094C161.711 168.094 161.31 168.255 161.023 168.578C160.742 168.901 160.565 169.339 160.492 169.891H163.953C163.917 169.302 163.737 168.857 163.414 168.555C163.096 168.247 162.701 168.094 162.227 168.094ZM162.227 166.258C162.935 166.258 163.573 166.391 164.141 166.656C164.708 166.922 165.177 167.341 165.547 167.914C165.88 168.419 166.096 169.005 166.195 169.672C166.253 170.062 166.276 170.625 166.266 171.359H160.438C160.469 172.214 160.737 172.812 161.242 173.156C161.549 173.37 161.919 173.477 162.352 173.477C162.81 173.477 163.182 173.346 163.469 173.086C163.625 172.945 163.763 172.75 163.883 172.5H166.156C166.099 173.005 165.836 173.518 165.367 174.039C164.638 174.867 163.617 175.281 162.305 175.281C161.221 175.281 160.266 174.932 159.438 174.234C158.609 173.536 158.195 172.401 158.195 170.828C158.195 169.354 158.568 168.224 159.312 167.438C160.062 166.651 161.034 166.258 162.227 166.258ZM172.375 166.297C173.495 166.297 174.37 166.701 175 167.508C175.635 168.315 175.953 169.357 175.953 170.633C175.953 171.956 175.641 173.052 175.016 173.922C174.391 174.792 173.518 175.227 172.398 175.227C171.695 175.227 171.13 175.086 170.703 174.805C170.448 174.638 170.172 174.346 169.875 173.93V175H167.695V163.5H169.914V167.594C170.195 167.198 170.505 166.896 170.844 166.688C171.245 166.427 171.755 166.297 172.375 166.297ZM171.805 173.391C172.378 173.391 172.823 173.159 173.141 172.695C173.458 172.232 173.617 171.622 173.617 170.867C173.617 170.263 173.539 169.763 173.383 169.367C173.086 168.617 172.539 168.242 171.742 168.242C170.935 168.242 170.38 168.609 170.078 169.344C169.922 169.734 169.844 170.24 169.844 170.859C169.844 171.589 170.005 172.193 170.328 172.672C170.651 173.151 171.143 173.391 171.805 173.391ZM184.523 165.484V173H186.742C187.878 173 188.669 172.44 189.117 171.32C189.362 170.706 189.484 169.974 189.484 169.125C189.484 167.953 189.299 167.055 188.93 166.43C188.565 165.799 187.836 165.484 186.742 165.484H184.523ZM187.148 163.484C187.862 163.495 188.456 163.578 188.93 163.734C189.737 164 190.391 164.487 190.891 165.195C191.292 165.768 191.565 166.388 191.711 167.055C191.857 167.721 191.93 168.357 191.93 168.961C191.93 170.492 191.622 171.789 191.008 172.852C190.174 174.284 188.888 175 187.148 175H182.188V163.484H187.148ZM196.93 168.094C196.414 168.094 196.013 168.255 195.727 168.578C195.445 168.901 195.268 169.339 195.195 169.891H198.656C198.62 169.302 198.44 168.857 198.117 168.555C197.799 168.247 197.404 168.094 196.93 168.094ZM196.93 166.258C197.638 166.258 198.276 166.391 198.844 166.656C199.411 166.922 199.88 167.341 200.25 167.914C200.583 168.419 200.799 169.005 200.898 169.672C200.956 170.062 200.979 170.625 200.969 171.359H195.141C195.172 172.214 195.44 172.812 195.945 173.156C196.253 173.37 196.622 173.477 197.055 173.477C197.513 173.477 197.885 173.346 198.172 173.086C198.328 172.945 198.466 172.75 198.586 172.5H200.859C200.802 173.005 200.539 173.518 200.07 174.039C199.341 174.867 198.32 175.281 197.008 175.281C195.924 175.281 194.969 174.932 194.141 174.234C193.312 173.536 192.898 172.401 192.898 170.828C192.898 169.354 193.271 168.224 194.016 167.438C194.766 166.651 195.737 166.258 196.93 166.258ZM204.211 172.281C204.258 172.677 204.359 172.958 204.516 173.125C204.792 173.422 205.302 173.57 206.047 173.57C206.484 173.57 206.831 173.505 207.086 173.375C207.346 173.245 207.477 173.049 207.477 172.789C207.477 172.539 207.372 172.349 207.164 172.219C206.956 172.089 206.182 171.865 204.844 171.547C203.88 171.307 203.201 171.008 202.805 170.648C202.409 170.294 202.211 169.784 202.211 169.117C202.211 168.331 202.518 167.656 203.133 167.094C203.753 166.526 204.622 166.242 205.742 166.242C206.805 166.242 207.669 166.456 208.336 166.883C209.008 167.305 209.393 168.036 209.492 169.078H207.266C207.234 168.792 207.154 168.565 207.023 168.398C206.779 168.096 206.362 167.945 205.773 167.945C205.289 167.945 204.943 168.021 204.734 168.172C204.531 168.323 204.43 168.5 204.43 168.703C204.43 168.958 204.539 169.143 204.758 169.258C204.977 169.378 205.75 169.583 207.078 169.875C207.964 170.083 208.628 170.398 209.07 170.82C209.508 171.247 209.727 171.781 209.727 172.422C209.727 173.266 209.411 173.956 208.781 174.492C208.156 175.023 207.188 175.289 205.875 175.289C204.536 175.289 203.547 175.008 202.906 174.445C202.271 173.878 201.953 173.156 201.953 172.281H204.211ZM213.672 165.469H211.414V163.414H213.672V165.469ZM211.414 166.484H213.672V175H211.414V166.484ZM219.492 173.172C220.013 173.172 220.453 172.977 220.812 172.586C221.172 172.19 221.352 171.562 221.352 170.703C221.352 169.896 221.18 169.281 220.836 168.859C220.497 168.438 220.042 168.227 219.469 168.227C218.688 168.227 218.148 168.594 217.852 169.328C217.695 169.719 217.617 170.201 217.617 170.773C217.617 171.268 217.701 171.708 217.867 172.094C218.169 172.812 218.711 173.172 219.492 173.172ZM218.938 166.281C219.365 166.281 219.737 166.346 220.055 166.477C220.596 166.701 221.034 167.112 221.367 167.711V166.484H223.531V174.562C223.531 175.661 223.346 176.49 222.977 177.047C222.341 178.005 221.122 178.484 219.32 178.484C218.232 178.484 217.344 178.271 216.656 177.844C215.969 177.417 215.589 176.779 215.516 175.93H217.938C218 176.19 218.102 176.378 218.242 176.492C218.482 176.695 218.885 176.797 219.453 176.797C220.255 176.797 220.792 176.529 221.062 175.992C221.24 175.648 221.328 175.07 221.328 174.258V173.711C221.115 174.076 220.885 174.349 220.641 174.531C220.198 174.87 219.622 175.039 218.914 175.039C217.82 175.039 216.945 174.656 216.289 173.891C215.638 173.12 215.312 172.078 215.312 170.766C215.312 169.5 215.628 168.438 216.258 167.578C216.888 166.714 217.781 166.281 218.938 166.281ZM230.336 166.281C231.216 166.281 231.935 166.513 232.492 166.977C233.055 167.435 233.336 168.198 233.336 169.266V175H231.055V169.82C231.055 169.372 230.995 169.029 230.875 168.789C230.656 168.352 230.24 168.133 229.625 168.133C228.87 168.133 228.352 168.453 228.07 169.094C227.924 169.432 227.852 169.865 227.852 170.391V175H225.633V166.5H227.781V167.742C228.068 167.305 228.339 166.99 228.594 166.797C229.052 166.453 229.633 166.281 230.336 166.281Z" fill="#848484"/>
<path fill-rule="evenodd" clip-rule="evenodd" d="M203.417 93H173.917C171.205 93 169 94.8429 169 97.1089V115.597C169 117.863 171.205 119.706 173.917 119.706H183.75V121.76C183.75 121.762 183.75 121.762 183.75 121.762H173.914V125.871H203.414V121.762H193.583C193.583 121.762 193.583 121.762 193.583 121.76V119.706H203.417C206.126 119.706 208.333 117.863 208.333 115.597V97.1089C208.333 94.8429 206.126 93 203.417 93ZM188.667 121.763C188.667 121.763 188.667 121.763 188.667 121.76C188.667 121.763 188.667 121.763 188.667 121.763ZM173.917 115.597V97.1089H203.417L203.422 115.597H173.917Z" fill="#03AB5A"/>
<line x1="148" y1="149" x2="227" y2="149" stroke="#FDD78E" stroke-width="2"/>
<path d="M304.531 111V99.4844H306.914V103.875H311.414V99.4844H313.805V111H311.414V105.859H306.914V111H304.531ZM315.258 105.484H319.742V107.594H315.258V105.484ZM321.422 111V99.4844H323.805V103.875H328.305V99.4844H330.695V111H328.305V105.859H323.805V111H321.422ZM332.148 105.484H336.633V107.594H332.148V105.484ZM338.312 111V99.4844H340.695V103.875H345.195V99.4844H347.586V111H345.195V105.859H340.695V111H338.312Z" fill="#FFFCFC"/>
<defs>
<filter id="filter0_d" x="257" y="44" width="138" height="180" filterUnits="userSpaceOnUse" color-interpolation-filters="sRGB">
<feFlood flood-opacity="0" result="BackgroundImageFix"/>
<feColorMatrix in="SourceAlpha" type="matrix" values="0 0 0 0 0 0 0 0 0 0 0 0 0 0 0 0 0 0 127 0"/>
<feOffset dy="1"/>
<feGaussianBlur stdDeviation="7"/>
<feColorMatrix type="matrix" values="0 0 0 0 0 0 0 0 0 0 0 0 0 0 0 0 0 0 0.1 0"/>
<feBlend mode="normal" in2="BackgroundImageFix" result="effect1_dropShadow"/>
<feBlend mode="normal" in="SourceGraphic" in2="effect1_dropShadow" result="shape"/>
</filter>
<filter id="filter1_d" x="17" y="85" width="108" height="108" filterUnits="userSpaceOnUse" color-interpolation-filters="sRGB">
<feFlood flood-opacity="0" result="BackgroundImageFix"/>
<feColorMatrix in="SourceAlpha" type="matrix" values="0 0 0 0 0 0 0 0 0 0 0 0 0 0 0 0 0 0 127 0"/>
<feOffset dy="1"/>
<feGaussianBlur stdDeviation="7"/>
<feColorMatrix type="matrix" values="0 0 0 0 0 0 0 0 0 0 0 0 0 0 0 0 0 0 0.1 0"/>
<feBlend mode="normal" in2="BackgroundImageFix" result="effect1_dropShadow"/>
<feBlend mode="normal" in="SourceGraphic" in2="effect1_dropShadow" result="shape"/>
</filter>
<filter id="filter2_d" x="120" y="61" width="138" height="152" filterUnits="userSpaceOnUse" color-interpolation-filters="sRGB">
<feFlood flood-opacity="0" result="BackgroundImageFix"/>
<feColorMatrix in="SourceAlpha" type="matrix" values="0 0 0 0 0 0 0 0 0 0 0 0 0 0 0 0 0 0 127 0"/>
<feOffset dy="1"/>
<feGaussianBlur stdDeviation="7"/>
<feColorMatrix type="matrix" values="0 0 0 0 0 0 0 0 0 0 0 0 0 0 0 0 0 0 0.1 0"/>
<feBlend mode="normal" in2="BackgroundImageFix" result="effect1_dropShadow"/>
<feBlend mode="normal" in="SourceGraphic" in2="effect1_dropShadow" result="shape"/>
</filter>
</defs>
</svg>
