<svg width="18" height="18" viewBox="0 0 18 18" fill="none" xmlns="http://www.w3.org/2000/svg">
<path d="M9.10578 5.93707C7.49604 5.93707 6.18238 7.27188 6.18238 8.90751C6.18238 10.5431 7.49604 11.8779 9.10578 11.8779C10.7155 11.8779 12.0292 10.5431 12.0292 8.90751C12.0292 7.27188 10.7155 5.93707 9.10578 5.93707ZM17.8738 8.90751C17.8738 7.67744 17.8848 6.45852 17.8168 5.23068C17.7488 3.80451 17.4286 2.53879 16.4022 1.49591C15.3737 0.450796 14.1302 0.127681 12.7266 0.0586007C11.516 -0.0104791 10.3164 0.000662819 9.10797 0.000662819C7.89738 0.000662819 6.69775 -0.0104791 5.48936 0.0586007C4.08577 0.127681 2.84009 0.453024 1.81372 1.49591C0.785151 2.54102 0.467151 3.80451 0.399165 5.23068C0.331178 6.46074 0.342144 7.67967 0.342144 8.90751C0.342144 10.1353 0.331178 11.3565 0.399165 12.5843C0.467151 14.0105 0.787344 15.2762 1.81372 16.3191C2.84228 17.3642 4.08577 17.6873 5.48936 17.7564C6.69995 17.8255 7.89957 17.8144 9.10797 17.8144C10.3186 17.8144 11.5182 17.8255 12.7266 17.7564C14.1302 17.6873 15.3759 17.362 16.4022 16.3191C17.4308 15.274 17.7488 14.0105 17.8168 12.5843C17.887 11.3565 17.8738 10.1376 17.8738 8.90751ZM9.10578 13.4779C6.61661 13.4779 4.60773 11.4367 4.60773 8.90751C4.60773 6.37829 6.61661 4.3371 9.10578 4.3371C11.595 4.3371 13.6038 6.37829 13.6038 8.90751C13.6038 11.4367 11.595 13.4779 9.10578 13.4779ZM13.7881 5.21731C13.2069 5.21731 12.7376 4.74043 12.7376 4.14991C12.7376 3.55939 13.2069 3.08252 13.7881 3.08252C14.3692 3.08252 14.8386 3.55939 14.8386 4.14991C14.8387 4.29013 14.8117 4.42901 14.7589 4.55859C14.7062 4.68818 14.6288 4.80591 14.5313 4.90507C14.4337 5.00422 14.3178 5.08284 14.1903 5.13642C14.0627 5.18999 13.9261 5.21748 13.7881 5.21731Z" fill="#03AB5A"/>
</svg>
