<svg width="1920" height="855" viewBox="0 0 1920 855" fill="none" xmlns="http://www.w3.org/2000/svg">
<path d="M79.5953 744.173C78.8581 742.619 77.5033 741.364 76.3179 739.849C76.7562 742.649 77.3539 745.249 78.649 747.759C79.2566 747.64 79.8743 747.52 80.4919 747.4C80.2727 746.275 80.0635 745.159 79.5953 744.173Z" fill="#218052"/>
<path d="M75.75 746.554C74.6442 745.956 73.4389 745.548 72.2733 745.059C73.4687 746.076 74.2856 747.49 75.5209 748.357C76.278 748.207 77.065 748.058 77.8818 747.899C77.1646 747.401 76.4772 746.942 75.75 746.554Z" fill="#218052"/>
<path d="M98.6026 746.793C98.5329 746.673 98.4631 746.564 98.3934 746.444C97.5865 746.763 96.7696 747.082 95.9229 747.42L97.3175 747.769C97.7459 747.44 98.1742 747.121 98.6026 746.793Z" fill="#749E73"/>
<path d="M1779.92 233.946C1779.35 234.912 1778.62 236.028 1778.21 236.735C1778.21 236.745 1778.2 236.755 1778.19 236.765C1778.14 236.855 1778.09 236.944 1778.04 237.024C1774.05 244.466 1768.52 256.639 1767.22 268.962C1766.86 272.379 1759.88 275.885 1759.51 279.402C1758.64 287.75 1765.61 294.265 1763.6 303.599C1760.93 315.992 1760.98 326.123 1761.03 328.743C1761.04 329.142 1761.19 329.52 1761.47 329.809L1779.91 348.776L1782.33 229.742C1782.06 230.19 1781.36 231.366 1780.6 232.651C1780.46 232.98 1780.23 233.438 1779.92 233.946Z" fill="#3F5140"/>
<path d="M805.706 724.598C805.945 724.857 806.224 725.086 806.523 725.275L809.88 727.407C810.498 727.796 811.165 728.015 811.823 728.064C813.845 728.234 815.847 726.939 816.355 724.787C816.355 724.747 816.365 724.717 816.375 724.677C816.913 722.396 817.471 719.627 817.859 716.658C817.899 716.379 817.909 716.1 817.899 715.811C817.869 714.975 817.61 714.148 817.112 713.47C813.486 708.559 816.455 700.4 814.044 695.778C813.416 694.563 812.171 693.836 810.816 693.616C810.567 693.577 810.368 693.517 810.209 693.447V693.457C809.84 693.298 809.651 693.049 809.611 692.73C809.422 693.138 809.272 693.567 809.203 694.025L805.198 723.94C805.228 723.99 805.258 724.04 805.288 724.08C805.417 724.259 805.547 724.428 805.706 724.598Z" fill="#3F5140"/>
<path d="M1171.39 517.321C1174.84 517.052 1178.22 517.152 1181.51 517.411C1188.95 518.009 1195.86 519.483 1201.88 519.652C1203.15 519.682 1204.39 519.662 1205.58 519.563C1209.21 519.244 1212.45 518.188 1215.18 515.777C1215.81 515.209 1216.43 514.562 1217.02 513.835C1218.22 512.34 1201.01 492.815 1199.01 489.428C1194.45 481.658 1192.69 470.899 1188.2 465.021C1187.7 464.354 1187.28 463.736 1186.95 463.169C1186.92 463.119 1186.89 463.069 1186.87 463.019C1186.79 462.88 1186.71 462.74 1186.64 462.611C1186.63 462.591 1186.62 462.561 1186.6 462.541C1186.52 462.382 1186.44 462.232 1186.36 462.083C1186.33 462.023 1186.31 461.963 1186.28 461.903C1186.23 461.794 1186.18 461.684 1186.13 461.585C1186.09 461.495 1186.06 461.405 1186.02 461.316C1185.99 461.246 1185.96 461.176 1185.94 461.116C1185.89 460.997 1185.85 460.887 1185.81 460.778C1185.8 460.748 1185.78 460.708 1185.77 460.678C1185.74 460.608 1185.72 460.539 1185.7 460.469C1185.68 460.399 1185.65 460.339 1185.64 460.27C1185.63 460.25 1185.63 460.23 1185.62 460.21C1185.55 459.971 1185.49 459.742 1185.44 459.532C1185.42 459.433 1185.4 459.333 1185.38 459.244C1185.38 459.234 1185.37 459.214 1185.37 459.204C1185.28 458.775 1185.22 458.407 1185.16 458.098C1185.16 458.088 1185.16 458.078 1185.15 458.068C1185.14 457.998 1185.12 457.939 1185.1 457.879C1185.1 457.869 1185.1 457.869 1185.1 457.859C1185.08 457.799 1185.06 457.729 1185.04 457.67C1185.03 457.65 1185.02 457.63 1185.01 457.61C1184.99 457.57 1184.98 457.53 1184.96 457.49C1184.95 457.46 1184.93 457.44 1184.92 457.411C1184.91 457.381 1184.89 457.351 1184.88 457.331C1184.87 457.311 1184.85 457.291 1184.83 457.271C1184.81 457.241 1184.79 457.211 1184.77 457.191C1184.75 457.171 1184.73 457.152 1184.71 457.132C1184.69 457.112 1184.68 457.082 1184.65 457.062C1184.63 457.042 1184.61 457.032 1184.58 457.012C1184.55 456.992 1184.52 456.962 1184.49 456.942C1184.49 456.942 1184.48 456.942 1184.48 456.932C1184.23 456.863 1183.99 456.783 1183.75 456.683C1183.72 456.673 1183.69 456.673 1183.67 456.673C1183.61 456.663 1183.56 456.653 1183.49 456.643C1183.44 456.634 1183.38 456.634 1183.32 456.624C1183.26 456.614 1183.2 456.604 1183.13 456.604C1183.08 456.594 1183.02 456.594 1182.96 456.594C1182.88 456.584 1182.8 456.584 1182.72 456.574C1182.66 456.574 1182.6 456.564 1182.54 456.564C1182.45 456.564 1182.36 456.554 1182.26 456.554C1182.19 456.554 1182.1 456.554 1182.04 456.544C1181.94 456.544 1181.85 456.534 1181.74 456.534H1181.73C1181.65 456.534 1181.58 456.534 1181.5 456.534H1181.49H1181.12C1181.06 456.534 1180.99 456.534 1180.93 456.534C1179.9 456.534 1178.98 456.046 1178.19 455.378C1178.14 455.329 1178.08 455.299 1178.03 455.249C1178.02 455.239 1178.01 455.229 1178 455.219C1172.02 449.242 1162.31 436.63 1155.39 426.19C1155.37 426.15 1155.34 426.11 1155.31 426.061C1152.52 421.847 1150.19 418.001 1148.75 415.112C1148.47 414.565 1148.24 414.066 1148.04 413.588C1148.04 413.598 1148.04 413.608 1148.04 413.608C1148.04 413.598 1148.03 413.598 1148.03 413.588C1147.78 413.02 1147.59 412.522 1147.45 412.064C1147.49 415.102 1148.24 422.962 1148.26 425.722L1141.89 491.988C1153.24 500.326 1167.65 515.837 1170.96 517.202C1171.12 517.281 1171.28 517.331 1171.39 517.321Z" fill="#3F5140"/>
<path d="M1883.94 401.036C1880.97 397.978 1877.26 395.747 1873.18 394.551L1805.08 374.657L1780.83 349.713L1779.92 348.776L1761.48 329.809C1761.2 329.52 1761.04 329.142 1761.04 328.743C1761 326.123 1760.95 316.002 1763.61 303.599C1765.62 294.265 1758.65 287.75 1759.52 279.402C1759.89 275.885 1766.87 272.379 1767.22 268.962C1768.52 256.639 1774.06 244.466 1778.05 237.024C1778.09 236.944 1778.14 236.865 1778.2 236.765C1778.21 236.755 1778.21 236.745 1778.22 236.735C1778.63 236.028 1779.36 234.912 1779.93 233.946C1780.23 233.438 1780.47 232.99 1780.62 232.641C1780.71 232.442 1780.77 232.262 1780.77 232.163C1780.81 232.143 1780.84 232.133 1780.84 232.133C1781.77 230.599 1782.35 229.732 1782.35 229.732L1730.18 240.929L1672.82 228.925L1630.69 210.067L1553.22 194.537C1546.65 193.222 1539.9 193.102 1533.29 194.208C1499.52 199.856 1391.22 221.822 1321.04 278.635C1311.23 286.574 1307.13 304.835 1271.51 328.175C1219.99 361.946 1160.38 400.329 1147.37 410.042C1147.06 410.321 1147.1 411.038 1147.44 412.074C1147.58 412.522 1147.78 413.03 1148.02 413.598C1148.02 413.608 1148.03 413.608 1148.03 413.618C1148.03 413.608 1148.03 413.608 1148.03 413.598C1148.23 414.076 1148.46 414.575 1148.74 415.122C1150.18 418.011 1152.51 421.857 1155.3 426.07C1155.33 426.12 1155.35 426.16 1155.38 426.2C1162.3 436.63 1172.01 449.252 1177.99 455.229C1178 455.239 1178.01 455.249 1178.02 455.259C1178.07 455.309 1178.13 455.348 1178.18 455.388C1178.97 456.056 1179.88 456.544 1180.92 456.544C1180.98 456.544 1181.05 456.544 1181.11 456.544H1181.48H1181.49C1181.57 456.544 1181.64 456.544 1181.72 456.544H1181.73C1181.84 456.544 1181.93 456.554 1182.03 456.554C1182.09 456.564 1182.18 456.564 1182.25 456.564C1182.35 456.564 1182.44 456.574 1182.53 456.574C1182.59 456.574 1182.65 456.584 1182.71 456.584C1182.79 456.594 1182.87 456.594 1182.95 456.604C1183.01 456.604 1183.07 456.604 1183.12 456.614C1183.19 456.614 1183.25 456.624 1183.31 456.634C1183.37 456.643 1183.43 456.643 1183.48 456.653C1183.55 456.663 1183.6 456.673 1183.66 456.683C1183.68 456.683 1183.71 456.693 1183.74 456.693C1183.76 456.693 1183.77 456.693 1183.79 456.703C1183.84 456.713 1183.89 456.733 1183.94 456.743C1183.98 456.753 1184.02 456.763 1184.06 456.773C1184.1 456.783 1184.13 456.803 1184.17 456.813C1184.21 456.823 1184.25 456.833 1184.29 456.853C1184.33 456.873 1184.36 456.883 1184.39 456.902C1184.42 456.922 1184.44 456.932 1184.47 456.942C1184.47 456.942 1184.48 456.942 1184.48 456.952C1184.51 456.972 1184.54 457.002 1184.57 457.022C1184.6 457.042 1184.62 457.052 1184.64 457.072C1184.66 457.092 1184.68 457.122 1184.7 457.142C1184.72 457.161 1184.74 457.181 1184.76 457.201C1184.78 457.221 1184.8 457.251 1184.82 457.281C1184.84 457.301 1184.86 457.321 1184.87 457.341C1184.88 457.361 1184.9 457.391 1184.91 457.421C1184.92 457.45 1184.94 457.47 1184.95 457.5C1184.97 457.54 1184.98 457.58 1185 457.62C1185.01 457.64 1185.02 457.66 1185.03 457.68C1185.05 457.739 1185.07 457.809 1185.09 457.869C1185.09 457.879 1185.09 457.879 1185.09 457.889C1185.11 457.948 1185.13 458.008 1185.14 458.078C1185.15 458.088 1185.15 458.098 1185.15 458.108C1185.21 458.417 1185.27 458.785 1185.36 459.214C1185.36 459.224 1185.37 459.244 1185.37 459.253C1185.39 459.343 1185.41 459.443 1185.43 459.542C1185.48 459.752 1185.54 459.981 1185.61 460.22C1185.62 460.24 1185.62 460.26 1185.63 460.28C1185.64 460.349 1185.67 460.409 1185.69 460.479C1185.71 460.549 1185.73 460.618 1185.76 460.688C1185.77 460.718 1185.79 460.758 1185.8 460.788C1185.84 460.897 1185.88 461.007 1185.93 461.126C1185.95 461.186 1185.98 461.256 1186.01 461.326C1186.05 461.415 1186.08 461.505 1186.12 461.595C1186.17 461.694 1186.22 461.804 1186.27 461.913C1186.3 461.973 1186.32 462.033 1186.35 462.093C1186.43 462.242 1186.51 462.391 1186.59 462.551C1186.61 462.571 1186.62 462.601 1186.63 462.621C1186.7 462.75 1186.78 462.89 1186.86 463.029C1186.88 463.079 1186.91 463.129 1186.94 463.178C1187.28 463.746 1187.69 464.364 1188.19 465.031C1192.67 470.909 1194.43 481.668 1199 489.438C1201 492.825 1218.21 512.35 1217.01 513.845C1216.42 514.572 1215.8 515.219 1215.17 515.787C1212.44 518.188 1209.2 519.254 1205.56 519.573C1204.38 519.672 1203.14 519.702 1201.87 519.662C1195.85 519.503 1188.94 518.018 1181.5 517.421C1178.22 517.162 1174.83 517.062 1171.38 517.331C1171.27 517.341 1171.12 517.301 1170.94 517.222C1167.62 515.857 1153.22 500.346 1141.87 492.008C1141.83 491.978 1141.79 491.948 1141.75 491.918C1141.62 491.829 1141.49 491.729 1141.36 491.63C1140 490.633 1138.64 489.737 1137.36 488.94C1134.96 487.545 1128.48 489.737 1126.15 488.442C1108.06 478.181 1091 476.089 1090.13 476.089C1087.73 476.089 1059.7 506.871 1051.7 522.312C1043.7 537.753 1009.29 560.865 1006.89 562.359C1004.48 563.853 946.696 627.709 926.045 644.046C914.24 653.38 892.205 653.49 886.566 653.36C885.939 653.35 885.321 653.231 884.773 652.932C882.771 651.836 872.351 650.651 822.243 682.977C821.884 683.206 821.495 683.415 821.087 683.545C816.933 684.84 809.352 690.478 809.611 692.74C809.651 693.058 809.83 693.307 810.209 693.467V693.457C810.368 693.527 810.577 693.586 810.816 693.626C812.161 693.845 813.406 694.573 814.044 695.788C816.455 700.41 813.496 708.579 817.112 713.48C817.61 714.158 817.869 714.984 817.899 715.821C817.909 716.1 817.899 716.379 817.859 716.668C817.471 719.637 816.913 722.406 816.375 724.687C816.365 724.727 816.355 724.757 816.355 724.797C815.847 726.959 813.845 728.244 811.822 728.074C811.155 728.015 810.488 727.805 809.88 727.417L806.523 725.285C806.224 725.096 805.945 724.867 805.706 724.608C805.547 724.448 805.417 724.269 805.287 724.09C805.258 724.04 805.228 723.99 805.198 723.95C805.148 723.87 805.088 723.801 805.048 723.711L801.163 716.698C800.436 715.383 799.081 714.536 797.577 714.457L792.078 714.158C791.241 714.108 790.424 713.829 789.747 713.331L782.794 708.28C781.777 707.543 780.492 707.274 779.267 707.553C759.353 712.056 589.872 749.443 513.833 733.514C462.201 722.655 440.593 722.556 431.787 723.851C428.43 724.319 425.063 724.07 421.746 723.093C417.352 721.798 412.72 721.569 408.168 722.097C369.047 726.63 212.218 744.143 164.401 735.675L67.2725 748.526L65.8778 748.177L64.8816 747.928L62.7896 747.41C60.5681 746.852 58.257 746.763 55.9956 747.131C54.4017 747.391 52.5189 747.749 50.6063 748.118C50.5465 748.128 50.4967 748.138 50.4369 748.148C49.8193 748.267 49.2116 748.387 48.594 748.506C48.3449 748.556 48.0859 748.606 47.8369 748.656C47.02 748.815 46.223 748.974 45.4759 749.114C42.8858 749.612 40.7938 749.99 40.1164 749.99C40.1164 749.99 -8.49096e-06 748.496 0 749.99C8.49096e-06 751.485 0 783.992 0 783.992V792.992V848.992C0 851.412 7.60092 854.052 10.0217 854.052L38.3731 853.962L68.8764 853.863L1914.57 810.23C1916.96 810.2 1920 807.882 1920 805.492V438.204L1883.94 401.036Z" fill="#218152"/>
<path d="M165.322 733.323C164.585 731.769 163.23 730.514 162.045 729C162.483 731.799 163.081 734.399 164.376 736.91C164.983 736.79 165.601 736.671 166.219 736.551C165.999 735.425 165.79 734.31 165.322 733.323Z" fill="#218052"/>
<path d="M173.322 736.323C172.585 734.769 171.23 733.514 170.045 732C170.483 734.799 171.081 737.399 172.376 739.91C172.983 739.79 173.601 739.671 174.219 739.551C173.999 738.425 173.79 737.31 173.322 736.323Z" fill="#218052"/>
<path d="M161.477 735.704C160.371 735.107 159.166 734.698 158 734.21C159.195 735.226 160.012 736.641 161.248 737.507C162.005 737.358 162.792 737.209 163.609 737.049C162.891 736.551 162.204 736.093 161.477 735.704Z" fill="#218052"/>
<path d="M169.477 738.704C168.371 738.107 167.166 737.698 166 737.21C167.195 738.226 168.012 739.641 169.248 740.507C170.005 740.358 170.792 740.209 171.609 740.049C170.891 739.551 170.204 739.093 169.477 738.704Z" fill="#218052"/>
<path d="M171.079 736.355C171.696 734.749 171.671 732.903 171.95 731C170.225 733.248 168.754 735.473 167.829 738.142C168.335 738.5 168.847 738.865 169.36 739.23C170.024 738.295 170.688 737.374 171.079 736.355Z" fill="#218052"/>
<path d="M179.079 739.355C179.696 737.749 179.671 735.903 179.95 734C178.225 736.248 176.754 738.473 175.829 741.142C176.335 741.5 176.847 741.865 177.36 742.23C178.024 741.295 178.688 740.374 179.079 739.355Z" fill="#218052"/>
<path d="M166.703 735.548C166.374 734.335 165.838 733.181 165.388 732C165.477 733.566 165.015 735.133 165.239 736.626C165.87 737.071 166.52 737.538 167.199 738.02C167.065 737.157 166.923 736.343 166.703 735.548Z" fill="#218052"/>
<path d="M174.703 738.548C174.374 737.335 173.838 736.181 173.388 735C173.477 736.566 173.015 738.133 173.239 739.626C173.87 740.071 174.52 740.538 175.199 741.02C175.065 740.157 174.923 739.343 174.703 738.548Z" fill="#218052"/>
<path opacity="0.05" d="M1571.6 362.793C1571.62 362.026 1571.64 361.229 1571.65 360.402C1571.23 360.601 1570.94 360.92 1570.94 361.239C1571.67 378.264 1568.94 413.917 1562.54 453.406C1555.1 452.45 1546.41 452.519 1539.55 452.151C1539.47 452.151 1539.4 452.151 1539.33 452.151C1539.04 452.151 1538.67 452.151 1538.37 452.071C1538.15 452.071 1537.92 452.071 1537.63 451.991C1537.41 451.991 1537.19 451.991 1537.05 451.912C1536.76 451.912 1536.39 451.832 1536.09 451.832C1536.01 451.832 1535.94 451.832 1535.87 451.832H1535.79C1534.9 451.752 1534.1 451.912 1533.43 452.28C1518.85 451.543 1499.09 453.386 1499.09 453.386C1499.01 454.043 1499.09 451.832 1498.94 448.007C1499.02 446.901 1499.46 438.433 1498.28 438.214C1498.07 435.634 1497.7 432.984 1497.26 430.324C1498.14 430.245 1498.65 430.175 1498.81 430.105C1499.7 429.517 1501.83 427.455 1499.84 424.795C1499.76 421.996 1498.65 417.952 1497.26 416.985C1496.6 416.537 1494.9 416.168 1492.84 415.88C1492.62 415.431 1492.32 414.993 1492.1 414.555C1492.62 415.441 1494.68 413.08 1494.68 413.08C1494.68 413.001 1494.6 412.931 1494.6 412.861C1500.65 408.587 1515.82 397.311 1521.2 387.07C1521.71 386.044 1522.22 385.077 1522.67 384.121C1523.33 384.34 1523.93 383.673 1524.29 382.936C1526.29 380.136 1526.88 370.932 1528.57 368.64C1542.37 370.334 1549.54 366.708 1551.83 363.779C1538.83 363.998 1511.35 363.928 1510.53 363.849C1510.5 363.849 1510.47 363.849 1510.45 363.849C1509.1 363.829 1508.31 362.932 1507.78 361.378C1506.19 363.072 1506.37 367.186 1504.86 372.097C1504.34 373.721 1503.67 375.414 1502.65 377.108C1502.57 377.188 1502.5 377.257 1502.43 377.397C1502.43 377.397 1502.43 377.397 1502.43 377.477C1502.35 377.556 1502.35 377.626 1502.28 377.696C1502.28 377.775 1502.2 377.775 1502.2 377.845L1502.12 377.925C1502.04 378.005 1501.97 378.144 1501.97 378.214V378.293C1501.97 378.373 1501.89 378.373 1501.89 378.443V378.523C1501.89 378.602 1501.89 378.602 1501.89 378.672C1501.89 378.742 1501.89 378.821 1501.89 378.891C1501.89 378.891 1501.89 378.891 1501.89 378.971C1501.89 379.051 1501.89 379.12 1501.97 379.12C1501.97 379.2 1502.05 379.27 1502.12 379.27C1498.65 382.806 1495.12 386.791 1491.22 389.74C1485.69 393.864 1481.72 397.181 1474.64 399.104C1473.99 398.885 1471.63 399.472 1471.33 399.761C1470.37 399.98 1469.63 400.13 1468.6 400.279C1467.27 400.429 1465.8 400.568 1464.25 400.728C1460.5 400.947 1456.36 401.246 1453.13 400.648C1452.17 399.99 1450.48 398.586 1448.63 398.735C1447.68 397.918 1445.77 396.304 1443.4 394.312C1443.4 394.312 1443.4 394.312 1443.32 394.312C1443.18 394.163 1443.04 394.093 1442.88 393.944C1442.73 393.794 1442.59 393.655 1442.36 393.495L1442.28 393.416C1438.89 390.616 1434.7 387.309 1430.56 384.36C1430.27 384.141 1429.98 383.992 1429.68 383.772C1429.39 383.553 1429.09 383.324 1428.79 383.185C1426.88 381.86 1423.85 381.123 1422.16 380.087C1422.16 379.798 1421.71 379.2 1421.05 378.692C1420.93 377.506 1415.77 372.705 1412.5 369.846C1412.36 370.384 1412.26 370.782 1412.21 370.952L1383.27 364.108H1382.97C1382.92 363.918 1382.87 363.739 1382.82 363.55C1382.67 363.012 1382.56 362.474 1382.51 361.926C1382.48 362.115 1382.46 362.305 1382.46 362.504C1382.46 362.872 1382.54 363.321 1382.68 363.689V363.769C1382.76 363.918 1382.83 364.058 1382.9 364.217C1382.98 364.297 1382.98 364.367 1383.05 364.436C1383.05 364.516 1383.13 364.516 1383.13 364.586C1383.21 364.666 1383.27 364.805 1383.34 364.875C1383.34 364.954 1383.42 364.954 1383.42 365.024C1383.5 365.174 1383.64 365.313 1383.71 365.393C1383.93 365.682 1384.23 365.981 1384.6 366.279C1387.47 370.702 1394.1 378.732 1397.42 382.567C1398.53 383.892 1399.33 384.699 1399.33 384.699C1399.41 384.699 1399.48 384.699 1399.62 384.699C1400.07 385.287 1400.73 385.954 1401.53 386.323C1402.86 389.192 1404.85 392.509 1407.13 395.747C1410.97 401.564 1415.45 406.954 1421.13 412.911C1421.05 412.911 1420.98 412.991 1420.84 412.991L1420.76 413.07C1414.79 412.702 1408.98 413.15 1405.88 414.834C1402.93 412.991 1399.69 412.104 1396.37 413.14C1387.75 415.72 1394.38 429.059 1398.59 431.639C1398.07 433.632 1397.56 435.763 1397.03 437.905C1396.81 437.317 1396.15 436.949 1395.64 436.58C1392.47 431.131 1387.9 427.296 1387.75 425.742C1387.67 424.417 1391.28 421.03 1389.59 417.852C1389.3 417.334 1389 417.115 1388.7 417.035C1386.86 416.587 1384.36 421.827 1383.03 421.827C1382.29 421.827 1381.92 421.538 1381.55 420.801C1380.3 417.852 1379.34 410.271 1371.82 411.227C1364.3 412.184 1364.01 414.176 1362.76 416.537C1361.21 419.406 1361.58 422.873 1362.11 424.427C1364.17 430.533 1369.26 436.58 1371.98 441.372C1372.06 441.521 1372.13 441.661 1372.27 441.741C1372.27 441.741 1372.42 442.926 1373.59 443.872C1374.41 444.53 1375.22 445.058 1377.43 445.128C1381.33 449.471 1386.48 453.755 1393.35 457.58C1392.9 460.598 1392.69 463.109 1392.69 464.733C1392.69 465.619 1392.77 466.207 1392.98 466.496C1394.37 468.488 1408.75 471.507 1418.25 473.051C1417.96 473.868 1417.73 474.674 1417.59 475.412C1417.51 475.78 1417.37 476.149 1417.3 476.517C1415.17 476.667 1413.4 476.886 1412.88 477.175C1411.26 478.201 1410.38 485.124 1411.63 486.679C1412.36 487.495 1415.09 488.073 1417.89 488.442C1423.2 503.026 1445.45 509.441 1464.17 506.204H1464.24C1464.83 506.124 1465.43 505.985 1466.01 505.835H1466.09C1466.68 505.686 1467.27 505.616 1467.85 505.467C1467.85 505.467 1467.85 505.467 1467.93 505.467C1482.96 501.711 1494.53 491.39 1491.21 473.638C1493.27 473.35 1495.05 472.612 1495.27 470.769C1496.15 470.62 1497.18 470.251 1498.21 469.514C1499.03 469.365 1499.69 469.225 1500.21 469.146C1508.6 467.522 1511.92 466.416 1532.55 465.31C1532.55 465.31 1533.74 465.599 1533.95 465.599C1541.76 466.187 1548.24 465.679 1551.04 465.968C1552.81 466.854 1555.54 467.811 1558.12 467.661C1558.7 467.582 1559.44 467.512 1560.18 467.293C1560.26 467.293 1560.26 467.293 1560.33 467.293C1559.51 471.865 1558.63 476.428 1557.68 481.07C1553.33 502.877 1547.88 524.832 1541.32 544.657C1527.91 543.84 1464.91 537.364 1451.43 533.818C1450.62 541.399 1457.33 551.052 1460.49 551.132C1453.49 554.887 1446.41 558.653 1439.42 562.339C1467.27 573.685 1488.19 576.046 1528.35 577.441C1528.06 578.099 1527.69 578.766 1527.39 579.354C1527.1 579.872 1527.61 580.46 1528.5 580.609C1529.39 580.758 1530.34 580.46 1530.56 579.951C1543.75 553.353 1553.84 517.102 1561.06 481.229C1562.02 476.517 1562.91 471.865 1563.71 467.233C1567.92 467.014 1571.82 465.838 1573.22 462.89C1573.3 462.74 1573.37 462.521 1573.44 462.372V462.292C1573.52 462.142 1573.52 462.003 1573.59 461.844C1573.59 461.764 1573.59 461.694 1573.67 461.694C1573.67 461.614 1573.75 461.475 1573.75 461.405C1573.75 461.326 1573.75 461.256 1573.75 461.186C1573.75 461.116 1573.75 461.037 1573.75 460.967C1573.75 460.887 1573.75 460.818 1573.75 460.748C1573.75 460.668 1573.75 460.598 1573.75 460.529C1573.75 460.449 1573.75 460.379 1573.75 460.309C1573.75 460.23 1573.75 460.16 1573.75 460.16C1573.75 460.08 1573.75 460.011 1573.75 459.941C1573.75 459.861 1573.75 459.861 1573.75 459.791C1573.67 459.343 1573.53 458.905 1573.3 458.467C1573.22 458.387 1573.22 458.247 1573.15 458.178C1573.15 458.178 1573.15 458.098 1573.07 458.098C1572.99 458.018 1572.92 457.949 1572.85 457.809C1572.85 457.809 1572.85 457.729 1572.77 457.729C1572.69 457.65 1572.62 457.58 1572.55 457.51C1572.55 457.51 1572.55 457.51 1572.47 457.43C1572.39 457.351 1572.32 457.281 1572.25 457.211C1571.8 456.763 1571.23 456.325 1570.63 455.956C1570.55 455.876 1570.41 455.807 1570.34 455.737H1570.26C1570.18 455.657 1570.04 455.588 1569.97 455.588C1569.97 455.588 1569.89 455.588 1569.89 455.508C1569.81 455.428 1569.67 455.428 1569.6 455.358C1569.6 455.358 1569.52 455.358 1569.52 455.279C1569.44 455.199 1569.3 455.199 1569.15 455.129H1569.07C1568.42 454.84 1567.75 454.611 1567.08 454.392C1566.93 454.312 1566.79 454.312 1566.71 454.243C1566.42 454.163 1566.19 454.093 1565.98 454.024C1571.9 416.348 1574.66 382.198 1574.31 364.088C1574.02 364.337 1573.64 364.496 1573.2 364.496C1572.34 364.486 1571.6 363.749 1571.6 362.793ZM1399.71 427.415C1398.09 425.503 1395.51 417.842 1398.83 416.806C1400.15 416.437 1401.62 416.886 1403.17 417.912C1402.07 420.123 1400.9 423.441 1399.71 427.415ZM1529.1 575.429C1526.89 567.539 1533.44 553.991 1540.44 546.768C1536.91 557.089 1533.15 566.742 1529.1 575.429Z" fill="#111111"/>
<path opacity="0.05" d="M1414.31 362.026C1414.19 362.673 1414.02 363.53 1413.81 364.456C1414.18 363.809 1414.39 363.131 1414.39 362.424C1414.39 362.344 1414.35 362.205 1414.31 362.026Z" fill="#111111"/>
<path d="M1422.31 265.764C1422.35 269.052 1422.33 271.96 1422.22 274.351C1422.67 273.734 1423.21 273.265 1423.72 273.216C1423.75 273.166 1423.78 273.106 1423.81 273.056C1423.48 271.393 1422.94 268.852 1422.31 265.764Z" fill="#CAC9CA"/>
<path d="M1412.39 187.065C1412.39 187.065 1414.01 187.653 1415.48 189.217C1415.5 189.207 1415.51 189.187 1415.52 189.187C1415.65 189.068 1415.79 188.948 1415.93 188.819C1415.93 188.779 1415.93 188.729 1415.93 188.689C1415.93 188.321 1416.08 187.872 1416.22 187.504C1416.59 186.617 1417.47 185.88 1418.35 185.372C1418.4 185.402 1418.45 185.412 1418.51 185.442C1419.16 185.063 1419.75 184.804 1420.05 184.734C1420.02 184.724 1420 184.724 1419.96 184.714C1419.31 182.503 1418.78 180.291 1418.34 178.16C1418.34 178.14 1418.33 178.13 1418.33 178.11C1408.8 180.65 1394.4 185.671 1393 188.918C1392.83 189.337 1392.74 190.353 1392.73 191.837C1392.74 190.393 1392.82 189.406 1393 188.988C1396.47 186.697 1410.77 186.328 1412.39 187.065Z" fill="#CAC9CA"/>
<path d="M1422.22 274.351C1422.32 271.95 1422.35 269.042 1422.31 265.764C1421.31 260.973 1420.06 254.856 1418.91 248.64C1416.06 256.858 1411.52 268.474 1406.02 274.282C1409.12 277.101 1414.99 277.838 1420.95 277.22C1420.85 276.822 1421.44 275.387 1422.22 274.351Z" fill="#949290"/>
<path d="M1415.04 223.904C1415.06 223.914 1415.09 223.924 1415.11 223.934L1414.34 220.637C1414.33 220.647 1414.32 220.657 1414.31 220.667C1410.85 222.868 1403.65 227.869 1397.1 234.843C1397.25 235.41 1397.25 235.908 1397.14 236.337C1399.03 249.835 1401.28 262.626 1403.29 269.151C1408.44 263.363 1414.11 247.096 1417.22 240.531C1414.54 239.515 1415.04 223.904 1415.04 223.904Z" fill="#949290"/>
<path d="M1413.47 190.622C1413.9 190.333 1414.73 189.765 1415.46 189.227C1413.99 187.663 1412.37 187.075 1412.37 187.075C1410.75 186.338 1396.45 186.707 1393 188.988C1392.83 189.396 1392.74 190.383 1392.73 191.837C1392.71 194.427 1392.95 198.502 1393.37 203.493C1398.57 198.781 1404.76 194.587 1412.12 191.259L1413.47 190.622Z" fill="#949290"/>
<path d="M1417.48 240.6C1417.43 240.591 1417.37 240.571 1417.32 240.571C1417.29 240.561 1417.26 240.541 1417.23 240.531C1414.12 247.096 1408.45 263.363 1403.3 269.151C1401.76 270.875 1400.27 271.672 1398.9 270.994C1395.59 269.37 1398.25 256.629 1399.79 253.531L1398.61 246.607C1394.4 250.811 1387.77 272.917 1396.39 277.18C1399.8 278.864 1403.05 277.41 1406.01 274.282C1411.51 268.474 1416.06 256.858 1418.9 248.64C1418.41 245.94 1417.92 243.23 1417.48 240.6Z" fill="#CAC9CA"/>
<path d="M1491.37 239.086C1491.37 243.728 1487.62 247.853 1483.05 248.221L1456.67 250.433C1455.45 250.552 1454.29 250.383 1453.25 249.994C1448.56 249.965 1441.35 244.874 1441.35 240.561V240.551C1439.56 241.009 1436.96 241.248 1434.13 241.338C1434.27 244.904 1434.41 247.365 1434.43 247.723C1439.85 247.813 1445.27 248.062 1445.27 248.062C1445.27 248.092 1445.25 248.112 1445.24 248.142C1445.25 248.142 1445.26 248.142 1445.27 248.142C1445.27 248.142 1445.43 250.712 1445.62 254.009L1477.35 253.82C1477.5 251.329 1477.63 249.397 1477.67 248.919C1477.64 248.849 1477.62 248.789 1477.6 248.719C1477.6 248.719 1492.62 247.972 1497.67 248.48C1498.13 244.087 1498.46 239.664 1498.72 235.47C1498.21 235.58 1495.23 236.088 1491.38 236.606L1491.37 239.086Z" fill="#F0EEEF"/>
<path d="M1507.95 204.011C1512.02 205.724 1534.25 206.541 1535.58 206.591C1535.6 206.581 1535.64 206.571 1535.69 206.571C1535.98 204.917 1536.15 202.955 1536.01 200.773C1535.56 194.069 1532.99 190.901 1532.99 190.901C1532.99 190.901 1533.03 190.881 1533.1 190.861C1512.28 189.018 1508.89 187.205 1500.5 184.505C1500.01 184.326 1499.25 184.097 1498.43 183.858C1499.99 185.751 1501.41 189.138 1501.95 194.766C1503.72 198.93 1505.95 203.224 1507.95 204.011Z" fill="#F0EEEF"/>
<path d="M1381.22 224.422C1383.76 224.891 1387.07 226.405 1389.98 228.138C1390.26 227.919 1392.18 226.385 1395.6 224.203C1397.81 222.809 1400.61 221.035 1404 219.192C1412.1 214.769 1405.55 194.587 1412.47 192.076C1414.52 193.272 1416.13 196.828 1417.03 201.082C1416 196.131 1414.03 192.096 1411.52 191.548L1412.16 191.239C1404.8 194.567 1398.61 198.761 1393.41 203.473C1386.51 209.719 1381.34 216.861 1377.4 224.084C1378.34 224.034 1379.59 224.124 1381.22 224.422Z" fill="#F0EEEF"/>
<path d="M1421.25 277.469C1414.79 288.746 1409.85 298.838 1405.62 310.085C1410.17 298.549 1416.55 286.076 1421.36 277.529C1421.32 277.509 1421.28 277.489 1421.25 277.469Z" fill="#F0EEEF"/>
<path d="M1508.35 331.811C1508.48 331.781 1508.61 331.732 1508.74 331.692C1508.8 331.672 1508.87 331.652 1508.93 331.632C1510.16 331.243 1511.55 330.745 1513.15 330.088C1510.51 331.164 1508.39 331.831 1506.73 332.24C1507.22 332.12 1507.76 331.991 1508.35 331.811Z" fill="#F0EEEF"/>
<path d="M1435.59 206.74C1434.27 209.788 1433.84 217.459 1433.8 225.359C1436.26 225.219 1438.8 224.97 1441.33 224.582V210.735C1441.33 206.162 1445.09 202.048 1449.65 201.68L1476.03 199.468C1477.59 199.339 1483.77 200.972 1486.13 201.929C1489.18 202.895 1491.35 205.744 1491.35 209.27V221.155C1495.14 220.557 1498.02 219.77 1499.33 219.093C1499.46 212.857 1499.41 209.171 1499.45 210.297C1499.45 210.297 1499.46 210.297 1499.48 210.307C1499.5 210.277 1499.51 210.257 1499.52 210.217C1500.48 198.432 1499.67 195.194 1495.1 185.173C1495.11 185.183 1495.11 185.183 1495.12 185.193C1495.09 185.163 1495.08 185.113 1495.05 185.083C1492.37 192.086 1479.42 196.788 1464.89 198.143C1462.35 198.372 1459.87 198.512 1457.44 198.581C1448.01 200.096 1437.53 202.297 1435.59 206.74Z" fill="#F0EEEF"/>
<path d="M1483.12 273.784C1482.31 273.564 1477.02 271.134 1476.79 268.623C1476.72 268.045 1476.73 266.711 1476.79 264.977C1472.14 265.256 1465.92 265.615 1460.04 265.724C1460.44 265.744 1460.66 265.754 1460.66 265.754C1460.66 265.754 1459.7 276.513 1463.46 284.991C1466 290.709 1474.46 292.761 1479.71 293.498C1483.93 289.972 1488.91 284.224 1492.5 274.68C1492.51 274.66 1492.52 274.65 1492.53 274.64C1492.52 274.63 1492.5 274.61 1492.5 274.61C1492.76 273.943 1492.99 273.236 1493.23 272.518C1489.07 273.495 1483.66 273.943 1483.12 273.784Z" fill="#F0EEEF"/>
<path d="M1483.94 293.906C1483.98 293.906 1484.01 293.906 1484.01 293.906C1484.01 293.906 1483.94 293.936 1483.84 293.996C1483.81 294.026 1483.77 294.046 1483.75 294.076C1485.31 295.56 1496.13 306.538 1503.25 314.169C1510.98 322.348 1513.19 330.068 1513.19 330.088C1515.96 328.942 1519.28 327.309 1523.21 325.007C1523.21 325.007 1523.21 325.007 1523.22 325.007C1522.78 323.453 1522.29 321.82 1521.73 320.066C1516.3 303.211 1501.03 284.443 1495 277.449C1494.2 282.58 1489.85 288.786 1483.94 293.906Z" fill="#F0EEEF"/>
<path d="M1435.82 272.907C1435.87 272.967 1435.96 272.957 1436.06 272.917C1435.97 272.907 1435.89 272.897 1435.8 272.887C1435.81 272.897 1435.81 272.907 1435.82 272.907Z" fill="#F0EEEF"/>
<path d="M1401.84 320.983C1401.8 321.122 1401.75 321.262 1401.71 321.392C1401.7 321.432 1401.68 321.482 1401.67 321.532C1401.68 321.532 1401.69 321.532 1401.7 321.522C1401.74 321.342 1401.78 321.162 1401.84 320.983Z" fill="#F0EEEF"/>
<path d="M1443.4 295.451C1443.4 295.441 1443.41 295.441 1443.41 295.431C1440.66 292.671 1437 289.194 1432.82 285.748C1425.91 289.932 1413.97 314.278 1409.61 324.499C1413.27 326.193 1417.34 328.265 1419.84 329.789C1421.61 328.026 1427.58 321.979 1433.92 313.133C1438.17 307.096 1441.35 300.461 1443.4 295.451Z" fill="#F0EEEF"/>
<path d="M1422.15 331.572C1422.15 331.582 1422.15 331.582 1422.16 331.592C1422.16 331.582 1422.15 331.572 1422.15 331.572Z" fill="#F0EEEF"/>
<path d="M1421.72 331.084C1421.9 331.244 1422.02 331.373 1422.1 331.493C1422.02 331.383 1421.9 331.253 1421.72 331.084Z" fill="#F0EEEF"/>
<path d="M1417.55 240.61C1417.52 240.6 1417.51 240.6 1417.49 240.591C1417.93 243.22 1418.42 245.93 1418.92 248.63C1420.07 254.846 1421.32 260.963 1422.32 265.754C1422.95 268.842 1423.49 271.383 1423.82 273.046C1423.79 273.096 1423.76 273.156 1423.73 273.206C1423.76 273.206 1423.79 273.186 1423.82 273.186C1423.83 273.186 1423.84 273.186 1423.85 273.186C1423.87 273.156 1423.88 273.136 1423.89 273.106C1422.8 267.757 1419.66 253.242 1417.55 240.61Z" fill="#F0EEEF"/>
<path d="M1415.93 188.819C1415.78 188.948 1415.65 189.078 1415.52 189.187C1415.67 189.078 1415.8 188.968 1415.93 188.869C1415.93 188.849 1415.93 188.839 1415.93 188.819Z" fill="#F0EEEF"/>
<path d="M1464.4 297.513C1468.5 297.951 1469.59 298.429 1471.49 299.037C1471.46 298.987 1471.45 298.947 1471.48 298.917C1472.17 298.27 1475.57 296.935 1479.69 293.498C1474.44 292.761 1465.98 290.709 1463.44 284.991C1459.68 276.513 1460.64 265.754 1460.64 265.754C1460.64 265.754 1460.42 265.744 1460.02 265.724C1458.19 265.754 1456.37 265.764 1454.67 265.754C1450.77 265.724 1448.05 265.535 1446.12 265.296C1446.15 266.551 1446.15 267.517 1446.12 267.966C1445.84 270.466 1440.53 272.907 1439.71 273.126C1439.44 273.206 1437.97 273.126 1436.05 272.907C1435.95 272.947 1435.86 272.957 1435.81 272.897C1435.8 272.887 1435.8 272.877 1435.79 272.877C1431.92 272.429 1426.43 271.442 1425.12 269.948C1423.76 268.384 1422.68 261.67 1422.57 257.028C1420.49 252.634 1422.7 249.218 1423.58 248.211C1424.01 247.673 1429.21 247.624 1434.41 247.713C1434.39 247.355 1434.25 244.894 1434.11 241.328C1427.51 241.557 1419.63 241.039 1417.54 240.601C1419.66 253.222 1422.79 267.757 1423.88 273.116C1423.86 273.146 1423.85 273.166 1423.84 273.196C1425.34 273.166 1430.77 277.051 1437.22 282.48C1439.77 284.652 1442.8 287.381 1445.54 289.942C1445.54 289.932 1445.55 289.932 1445.55 289.922C1449.66 293.737 1453.11 297.194 1453.21 297.652C1456.47 296.666 1460.6 297.104 1464.4 297.513Z" fill="#E3DFDE"/>
<path d="M1483.94 293.906C1483.91 293.936 1483.87 293.966 1483.84 293.996C1483.94 293.946 1484.01 293.906 1484.01 293.906C1484.01 293.906 1483.98 293.906 1483.94 293.906Z" fill="#E3DFDE"/>
<path d="M1409.6 324.499C1413.97 314.278 1425.9 289.932 1432.81 285.748C1429.28 282.829 1425.37 279.94 1421.34 277.529C1416.54 286.076 1410.15 298.549 1405.6 310.085C1404.09 313.87 1402.81 317.566 1401.82 320.983C1401.77 321.162 1401.72 321.341 1401.67 321.521C1402.24 321.312 1405.68 322.686 1409.6 324.499Z" fill="#E3DFDE"/>
<path d="M1415.62 224.124C1418.45 225.03 1425.65 225.817 1433.8 225.359C1433.84 217.469 1434.26 209.788 1435.59 206.74C1437.53 202.297 1448.01 200.096 1457.47 198.551C1439.88 199.02 1425.66 195.394 1418.8 192.146C1417.61 191.618 1416.88 191.04 1416.45 190.452L1416.44 190.442C1416.29 190.293 1416.22 190.074 1416.15 189.924C1416.14 189.905 1416.13 189.895 1416.13 189.875C1415.96 189.516 1415.93 189.197 1415.93 188.849C1415.8 188.948 1415.66 189.068 1415.52 189.167C1415.5 189.177 1415.49 189.197 1415.48 189.197C1414.75 189.745 1413.92 190.303 1413.49 190.592L1414.75 189.984C1425.31 202.227 1420.39 218.077 1415.62 224.124Z" fill="#E3DFDE"/>
<path d="M1477.34 253.83L1445.61 254.019C1445.83 257.725 1446.06 262.337 1446.13 265.286C1448.05 265.535 1450.78 265.724 1454.68 265.744C1456.39 265.774 1458.2 265.754 1460.03 265.714C1465.91 265.605 1472.13 265.256 1476.78 264.967C1476.89 261.799 1477.14 257.287 1477.34 253.83Z" fill="#A09E9E"/>
<path d="M1476.79 268.633C1477.01 271.134 1482.32 273.574 1483.12 273.794C1483.06 273.794 1483.95 265.914 1483.92 260.116C1483.77 260.036 1483.62 259.956 1483.49 259.877C1482.99 252.296 1478.28 250.632 1477.66 248.949C1477.63 249.417 1477.5 251.349 1477.34 253.85C1477.13 257.307 1476.89 261.809 1476.78 264.997C1476.73 266.711 1476.72 268.065 1476.79 268.633Z" fill="#CAC9CA"/>
<path d="M1483.91 260.106C1483.94 265.914 1483.06 273.784 1483.11 273.784C1483.65 273.933 1489.06 273.495 1493.21 272.498C1495.29 272 1497.05 271.373 1497.71 270.616C1499.07 269.052 1500.15 262.337 1500.26 257.695C1500.06 258.114 1499.84 258.532 1499.55 258.97C1496.5 263.812 1487.77 262.278 1483.91 260.106Z" fill="#DDDCDC"/>
<path d="M1477.59 248.739C1477.6 248.809 1477.63 248.869 1477.66 248.939C1478.28 250.632 1482.99 252.286 1483.49 259.867C1483.62 259.956 1483.77 260.026 1483.92 260.106C1487.77 262.268 1496.5 263.812 1499.55 258.97C1499.83 258.532 1500.06 258.113 1500.26 257.695C1502.34 253.302 1500.13 249.885 1499.25 248.879C1499.1 248.709 1498.53 248.58 1497.65 248.49C1492.62 247.992 1477.59 248.739 1477.59 248.739ZM1493.06 259.13C1493.14 258.173 1493.8 257.366 1494.46 257.366C1495.12 257.366 1495.56 258.183 1495.49 259.13C1495.41 260.086 1494.75 260.893 1494.09 260.893C1493.43 260.893 1492.92 260.086 1493.06 259.13Z" fill="#B5B5B5"/>
<path d="M1491.37 236.626C1495.21 236.108 1498.19 235.6 1498.71 235.49C1498.72 235.49 1498.74 235.48 1498.74 235.48C1500 235.191 1499.4 219.053 1499.4 219.053C1499.38 219.063 1499.37 219.073 1499.35 219.083C1498.04 219.75 1495.15 220.527 1491.37 221.145V236.626Z" fill="#73716F"/>
<path d="M1434.11 241.348C1436.96 241.248 1439.55 241.009 1441.33 240.561V224.582C1438.79 224.98 1436.25 225.229 1433.8 225.359C1425.65 225.817 1418.45 225.03 1415.62 224.124C1415.5 224.273 1415.38 224.432 1415.25 224.572L1415.1 223.934C1415.07 223.924 1415.05 223.914 1415.03 223.904C1415.03 223.904 1414.53 239.515 1417.21 240.521C1417.24 240.531 1417.27 240.551 1417.3 240.561C1417.34 240.571 1417.4 240.591 1417.46 240.591C1417.48 240.601 1417.5 240.6 1417.52 240.61C1419.64 241.039 1427.52 241.577 1434.11 241.348Z" fill="#73716F"/>
<path d="M1513.19 330.088C1513.17 330.098 1513.16 330.098 1513.15 330.108C1511.56 330.765 1510.16 331.263 1508.93 331.652C1508.87 331.672 1508.8 331.692 1508.74 331.712C1508.6 331.752 1508.48 331.791 1508.35 331.831C1507.76 332.001 1507.23 332.14 1506.73 332.26C1503.86 332.947 1502.47 332.847 1502.43 332.897C1502.39 332.957 1502.35 333.027 1502.33 333.116C1502.14 333.595 1502.28 334.372 1502.56 335.149C1502.71 335.607 1502.9 336.045 1503.11 336.444C1503.13 336.444 1503.14 336.434 1503.16 336.434L1503.17 336.444C1503.61 336.364 1504.05 336.294 1504.49 336.225C1507.19 335.706 1509.97 335.129 1512.75 334.332C1512.78 334.322 1512.8 334.312 1512.83 334.312C1512.83 334.302 1512.83 334.292 1512.83 334.282C1517.51 332.897 1521.93 330.785 1524.83 327.01C1524.92 327.229 1525.01 327.468 1525.1 327.717C1524.71 326.392 1524.07 324.489 1523.23 325.007C1523.23 325.007 1523.23 325.007 1523.22 325.007C1519.28 327.309 1515.96 328.922 1513.19 330.088Z" fill="#7EB76E"/>
<path d="M1503.17 336.414C1503.14 336.404 1503.13 336.414 1503.11 336.414H1503.1C1506.93 346.973 1506.25 356.955 1507.79 361.438C1508.32 362.992 1509.11 363.889 1510.46 363.908C1510.47 363.908 1510.51 363.908 1510.54 363.908C1505.3 363.829 1508.32 350.709 1503.17 336.414Z" fill="#F0EEEF"/>
<path d="M1512.82 334.262C1512.82 334.272 1512.82 334.282 1512.82 334.292C1512.79 334.302 1512.77 334.312 1512.74 334.312C1512.67 335.039 1512.66 335.846 1512.59 336.723C1512.51 339.303 1512.44 342.401 1512.81 345.638C1512.89 346.525 1513.03 347.402 1513.1 348.288C1514.49 357.344 1518.55 355.869 1518.55 355.869C1518.55 355.869 1528.65 351.157 1527.02 352.482C1525.4 353.737 1523.86 360.063 1523.86 360.063L1553.12 360.87C1552.35 356.029 1545.24 347.262 1529.08 350.56C1527.45 346.973 1526.85 333.007 1525.06 327.687C1524.97 327.428 1524.89 327.189 1524.79 326.98C1521.91 330.765 1517.5 332.867 1512.82 334.262Z" fill="#F0EEEF"/>
<path d="M1418.28 333.246C1418.4 333.276 1418.54 333.316 1418.66 333.345C1418.99 333.465 1419.32 333.565 1419.67 333.654C1419.7 333.664 1419.74 333.684 1419.76 333.684C1419.91 333.724 1420.05 333.764 1420.2 333.804C1420.29 333.834 1420.37 333.863 1420.46 333.893C1420.66 333.953 1420.86 334.003 1421.08 334.043C1421.08 334.073 1421.07 334.103 1421.07 334.132C1421.37 333.674 1421.65 333.226 1421.84 332.808C1421.87 332.748 1421.89 332.688 1421.92 332.638C1421.99 332.479 1422.05 332.329 1422.09 332.19C1422.1 332.16 1422.11 332.14 1422.12 332.1C1422.16 331.951 1422.19 331.811 1422.19 331.692C1422.19 331.662 1422.17 331.622 1422.16 331.582C1422.16 331.572 1422.15 331.572 1422.15 331.562C1422.14 331.532 1422.12 331.513 1422.1 331.483C1422.02 331.363 1421.91 331.234 1421.72 331.074C1421.7 331.054 1421.68 331.044 1421.65 331.024C1421.59 330.975 1421.53 330.925 1421.45 330.875C1421.04 330.566 1420.48 330.198 1419.82 329.779C1417.33 328.255 1413.27 326.183 1409.6 324.489C1405.68 322.676 1402.24 321.312 1401.68 321.511C1401.67 321.511 1401.66 321.511 1401.65 321.521C1401.64 321.521 1401.62 321.521 1401.62 321.531C1400.8 322.148 1400.13 323.254 1399.66 324.26C1401.28 324.888 1406.99 329.879 1418.27 333.276L1418.28 333.246Z" fill="#7EB76E"/>
<path d="M1420.47 333.903C1420.38 333.874 1420.3 333.854 1420.21 333.814C1420.06 333.774 1419.92 333.734 1419.77 333.694C1419.84 333.724 1419.91 333.734 1419.98 333.764C1420.16 333.824 1420.31 333.864 1420.47 333.903Z" fill="#F0EEEF"/>
<path d="M1415.62 224.124C1420.38 218.077 1425.29 202.227 1414.73 190.014L1413.47 190.622L1412.14 191.259L1411.5 191.568C1414.01 192.106 1415.98 196.141 1417.01 201.102C1417.05 201.321 1417.1 201.54 1417.14 201.759C1417.16 201.869 1417.17 201.978 1417.2 202.098C1418.46 209.021 1417.86 217.419 1414.34 220.647L1415.11 223.944L1415.26 224.582C1415.38 224.432 1415.5 224.273 1415.62 224.124Z" fill="#7EB76E"/>
<path d="M1425.49 185.91C1425.5 185.93 1425.5 185.94 1425.51 185.97C1424.49 185.75 1423.52 185.521 1422.49 185.312C1421.64 185.093 1420.86 184.954 1420.07 184.744C1419.76 184.824 1419.18 185.083 1418.53 185.452C1418.48 185.422 1418.43 185.412 1418.37 185.382C1417.48 185.9 1416.61 186.637 1416.24 187.514C1416.09 187.882 1415.95 188.331 1415.95 188.699C1415.95 188.739 1415.95 188.789 1415.95 188.829C1415.95 188.849 1415.95 188.859 1415.95 188.879C1415.95 189.227 1415.98 189.546 1416.15 189.905C1416.16 189.925 1416.17 189.934 1416.17 189.954C1416.25 190.104 1416.32 190.323 1416.46 190.472L1416.47 190.482C1416.9 191.07 1417.63 191.628 1418.82 192.176C1425.68 195.413 1439.9 199.05 1457.49 198.581C1459.92 198.512 1462.4 198.372 1464.94 198.143C1479.47 196.798 1492.42 192.086 1495.1 185.083C1495.13 185.113 1495.14 185.153 1495.17 185.193C1495.16 185.183 1495.16 185.183 1495.15 185.173C1499.72 195.194 1500.52 198.432 1499.57 210.217C1502.08 205.326 1502.37 199.856 1501.85 194.457C1501.89 194.557 1501.94 194.676 1501.99 194.776C1501.46 189.147 1500.03 185.76 1498.47 183.868C1497.5 182.672 1496.48 182.075 1495.59 181.875V181.865C1495.38 178.827 1493.63 177.651 1491.57 177.143C1491.47 178 1491.38 178.857 1491.25 179.734C1476.49 191.269 1445.38 189.885 1425.49 185.91Z" fill="#7EB76E"/>
<path d="M1450.43 122.134C1438.18 123.579 1426.54 131.189 1420.73 144.429C1426.57 131.189 1438.2 123.569 1450.43 122.134Z" fill="white"/>
<path d="M1417.48 172.322C1417.48 172.332 1417.48 172.332 1417.48 172.342C1418.01 172.382 1418.56 172.422 1419.11 172.441C1418.56 172.412 1418.01 172.372 1417.48 172.322Z" fill="white"/>
<path d="M1424.79 151.87C1424.91 151.88 1425.04 151.9 1425.18 151.93H1427.56C1428.14 151.93 1428.58 152.378 1428.58 152.956V171.376C1428.58 171.963 1428.13 172.402 1427.56 172.402H1424.76C1424.24 172.441 1423.67 172.471 1423.06 172.491C1423.21 173.956 1423.35 175.43 1423.65 176.894C1423.94 179.325 1424.47 181.756 1425.04 184.266C1425.19 184.764 1425.32 185.342 1425.47 185.9C1445.36 189.875 1476.48 191.269 1491.21 179.694C1491.34 178.807 1491.43 177.96 1491.53 177.104C1494.91 147.786 1483.22 130.671 1468.15 124.505C1450.64 121.058 1430.99 130.761 1424.79 151.87ZM1463.89 186.697C1415.33 188.759 1425.28 128.42 1460.5 128.42C1492.33 128.42 1507.58 184.784 1463.89 186.697Z" fill="white"/>
<path d="M1463.89 186.697C1507.58 184.784 1492.33 128.42 1460.5 128.42C1425.28 128.42 1415.33 188.769 1463.89 186.697ZM1486.59 158.116C1487.18 172.262 1477.09 183.688 1464.12 183.688C1451.14 183.688 1440.17 172.272 1439.58 158.116C1438.99 144.04 1449.08 132.544 1462.05 132.544C1475.01 132.544 1486 143.96 1486.59 158.116Z" fill="#FDD78E"/>
<path d="M1420.11 172.491C1420.18 172.491 1420.24 172.501 1420.31 172.501C1421.25 172.531 1422.19 172.531 1423.07 172.491V172.501C1423.67 172.481 1424.25 172.461 1424.77 172.412H1424.4C1423.81 172.412 1423.37 171.963 1423.37 171.386V152.966C1423.37 152.378 1423.82 151.94 1424.4 151.94H1424.77C1424.55 151.86 1424.32 151.94 1424.32 151.94C1422.76 151.86 1420.34 152.089 1418.05 152.597C1418.05 152.578 1418.06 152.568 1418.07 152.548C1415.22 153.145 1412.52 154.122 1411.8 155.466C1410.47 157.967 1411.43 169.463 1413.05 171.156C1413.57 171.744 1415.35 172.113 1417.48 172.322C1418 172.372 1418.55 172.412 1419.11 172.441C1419.44 172.451 1419.77 172.471 1420.11 172.491Z" fill="#C9C8C8"/>
<path d="M1424.79 151.87C1424.78 151.89 1424.78 151.9 1424.77 151.93H1425.19C1425.04 151.89 1424.91 151.87 1424.79 151.87Z" fill="#C9C8C8"/>
<path d="M1428.6 171.375V152.956C1428.6 152.368 1428.15 151.93 1427.58 151.93H1425.2H1424.78H1424.41C1423.82 151.93 1423.38 152.378 1423.38 152.956V171.375C1423.38 171.963 1423.83 172.402 1424.41 172.402H1424.78H1427.58C1428.15 172.402 1428.6 171.963 1428.6 171.375ZM1424.33 155.825C1424.33 154.719 1425.21 153.763 1426.32 153.763C1427.43 153.763 1428.31 154.719 1428.31 155.825C1428.31 156.931 1427.43 157.887 1426.32 157.887C1425.2 157.887 1424.33 156.931 1424.33 155.825ZM1426.68 171.156H1425.86C1425.12 171.156 1424.61 170.569 1424.61 169.901V162.38C1424.61 161.643 1425.19 161.125 1425.86 161.125H1426.68C1427.42 161.125 1427.93 161.643 1427.93 162.38V169.901C1427.93 170.638 1427.35 171.156 1426.68 171.156Z" fill="#F0EEEF"/>
<path d="M1397.11 234.843C1397.09 234.862 1397.08 234.872 1397.07 234.882C1397.04 234.773 1397 234.683 1396.96 234.594C1396.93 234.484 1396.89 234.384 1396.85 234.295C1396.7 234.006 1396.56 233.707 1396.33 233.338C1395.84 232.551 1394.78 231.565 1393.44 230.549C1392.42 229.762 1391.22 228.945 1389.92 228.188C1389.92 228.188 1389.95 228.158 1389.97 228.148C1387.06 226.415 1383.76 224.911 1381.21 224.432C1379.59 224.134 1378.34 224.034 1377.36 224.104C1375.24 224.253 1374.38 225.13 1373.62 226.196C1372.53 227.7 1372.32 229.513 1372.3 229.762C1374.35 226.345 1382.16 229.065 1388.44 232.78L1388.42 232.83C1390.93 234.305 1393.14 235.928 1394.69 237.403C1395.06 237.771 1395.35 238.14 1395.65 238.429C1395.68 238.399 1395.69 238.379 1395.72 238.349C1395.72 238.349 1395.72 238.349 1395.73 238.359C1395.72 238.389 1395.7 238.419 1395.7 238.449C1395.73 238.419 1395.78 238.389 1395.81 238.359C1396.27 237.841 1396.92 237.223 1397.14 236.337C1397.26 235.899 1397.26 235.41 1397.11 234.843Z" fill="#7EB76E"/>
<path d="M1395.73 238.339C1395.7 238.369 1395.68 238.389 1395.66 238.419C1395.37 238.13 1395.07 237.761 1394.7 237.393C1393.15 235.918 1390.95 234.295 1388.43 232.82L1388.45 232.771C1382.18 229.055 1374.36 226.325 1372.31 229.752C1372.19 229.951 1372.09 230.151 1372.01 230.39C1369.36 238.419 1364.2 248.441 1362.14 258.462C1361.58 261.072 1361.2 267.169 1363.05 272.21C1365.92 276.762 1375.7 283.008 1376.06 274.521C1377.25 271.353 1376.8 263.473 1380.41 260.445C1384.16 257.426 1387.41 269.5 1388.3 268.255C1391.16 264.131 1382.7 251.828 1382.77 251.23C1382.99 249.756 1385.5 241.806 1387.11 236.865C1387.7 235.022 1388.22 233.478 1388.43 232.89C1390.94 234.364 1393.15 235.988 1394.7 237.463C1395.07 237.831 1395.36 238.12 1395.66 238.489C1392.49 247.544 1387.85 253.89 1387.77 256.39C1387.69 258.602 1391.37 264.13 1389.61 269.43C1389.41 270.028 1389.19 270.397 1388.96 270.596C1389.21 270.436 1389.45 270.048 1389.68 269.351C1391.44 264.041 1387.77 258.512 1387.84 256.31C1387.92 253.82 1392.52 247.514 1395.69 238.429C1395.72 238.409 1395.73 238.389 1395.73 238.339C1395.73 238.339 1395.74 238.349 1395.73 238.339Z" fill="#F0EEEF"/>
<path d="M1432.82 285.748C1436.99 289.194 1440.66 292.671 1443.4 295.431C1443.4 295.441 1443.39 295.441 1443.39 295.451C1446.63 298.688 1448.62 300.9 1448.7 300.9C1450.55 301.049 1452.24 298.768 1453.2 297.732C1453.2 297.722 1453.19 297.702 1453.18 297.682C1453.19 297.672 1453.2 297.662 1453.2 297.652V297.642C1453.1 297.184 1449.65 293.737 1445.54 289.912C1445.54 289.922 1445.53 289.922 1445.53 289.932C1442.8 287.381 1439.76 284.642 1437.21 282.47C1430.76 277.041 1425.33 273.166 1423.83 273.186C1423.82 273.186 1423.81 273.186 1423.8 273.186C1423.77 273.186 1423.74 273.196 1423.71 273.206C1423.2 273.255 1422.67 273.724 1422.21 274.341C1421.43 275.377 1420.84 276.802 1420.94 277.21C1420.95 277.25 1420.97 277.29 1421 277.3C1421.08 277.34 1421.15 277.39 1421.24 277.449C1421.27 277.469 1421.31 277.489 1421.33 277.509C1425.38 279.93 1429.28 282.829 1432.82 285.748Z" fill="#7EB76E"/>
<path d="M1479.7 293.498C1475.57 296.935 1472.17 298.26 1471.49 298.917C1471.46 298.947 1471.47 298.997 1471.5 299.037C1471.77 299.455 1474.05 300.451 1474.75 300.172C1474.74 300.162 1474.73 300.162 1474.72 300.153C1477.89 298.459 1480.99 296.397 1483.72 294.046C1483.73 294.056 1483.74 294.066 1483.75 294.076C1483.78 294.046 1483.82 294.026 1483.84 293.996C1483.87 293.966 1483.91 293.936 1483.94 293.906C1489.85 288.786 1494.19 282.58 1495 277.449C1495.02 277.34 1495.05 277.22 1495.06 277.111C1495.06 277.111 1493.12 273.395 1492.51 274.63C1492.5 274.65 1492.49 274.66 1492.48 274.67C1488.89 284.223 1483.92 289.981 1479.7 293.498Z" fill="#7EB76E"/>
<path d="M1382.48 360.881C1382.48 360.901 1382.48 360.911 1382.48 360.921C1382.48 360.861 1382.49 360.811 1382.49 360.761C1382.48 360.791 1382.48 360.841 1382.48 360.881Z" fill="#F0EEEF"/>
<path d="M1382.49 361.159C1382.5 361.418 1382.51 361.677 1382.53 361.926C1382.58 362.484 1382.68 363.022 1382.84 363.55C1382.64 362.773 1382.51 361.986 1382.49 361.159Z" fill="#F0EEEF"/>
<path d="M1421.08 334.142C1421.08 334.113 1421.09 334.083 1421.09 334.053C1421.09 334.142 1421.06 334.242 1421.05 334.352C1421.05 334.282 1421.07 334.212 1421.08 334.142Z" fill="#F0EEEF"/>
<path d="M1391.97 349.384C1392.56 349.095 1393.23 348.936 1393.88 348.796C1394.99 348.717 1396.75 348.717 1399.48 349.085C1403.24 349.533 1406.19 350.191 1407.8 350.709C1408.25 350.928 1408.62 351.227 1409.06 351.526C1407.73 351.606 1396.6 350.131 1391.96 354.026C1389.31 356.238 1387.47 360.133 1386.28 363.161C1386.13 363.45 1386.06 363.819 1385.91 364.118H1383.27L1412.21 370.961C1412.26 370.792 1412.36 370.384 1412.5 369.856C1412.84 368.531 1413.36 366.339 1413.77 364.446C1413.98 363.51 1414.15 362.663 1414.27 362.016C1414.36 361.508 1414.42 361.129 1414.42 360.94C1414.42 357.583 1412.76 354.554 1410.07 352.303C1410.17 352.004 1410.3 351.705 1410.51 351.436C1412.57 348.667 1419.01 339.333 1420.63 335.408C1419.66 337.719 1417.05 341.873 1414.63 345.469L1417.36 336.264L1417.44 336.045L1418.25 333.266C1406.97 329.859 1401.26 324.878 1399.64 324.25C1399.59 324.23 1399.55 324.22 1399.5 324.22C1399.53 324.23 1399.57 324.24 1399.62 324.26C1399.84 324.34 1400.21 324.549 1400.65 324.848C1401.83 325.585 1403.82 326.98 1406.7 328.534C1406.33 328.982 1405.88 329.42 1405.44 329.859C1400.36 335.388 1393.65 341.943 1391.96 349.304C1388.8 350.41 1386.22 352.243 1384.53 354.594C1384.51 354.634 1384.5 354.684 1384.48 354.734C1384.35 354.913 1384.24 355.102 1384.12 355.281C1384.25 355.072 1384.38 354.883 1384.52 354.684C1386.23 352.333 1388.81 350.49 1391.97 349.384Z" fill="#F0EEEF"/>
<path d="M1536.02 200.773C1536.17 202.955 1535.99 204.917 1535.7 206.571C1535.64 206.581 1535.6 206.581 1535.59 206.591C1535.63 206.591 1535.66 206.591 1535.66 206.591C1535.07 210.057 1533.97 212.12 1533.97 212.12C1533.94 212.12 1533.93 212.12 1533.9 212.129C1534.25 212.438 1534.67 212.648 1535.1 212.757C1535.58 212.907 1536.1 212.936 1536.61 212.857C1536.77 212.867 1536.94 212.827 1537.1 212.777C1537.08 212.777 1537.07 212.777 1537.05 212.787C1536.9 212.787 1536.76 212.867 1536.53 212.867C1536.45 212.867 1536.38 212.867 1536.31 212.867C1536.53 212.578 1536.76 212.209 1536.97 211.761C1537.62 210.436 1538.07 208.663 1538.29 206.68C1538.32 206.68 1538.36 206.69 1538.39 206.69C1539.07 201.142 1537.94 194.069 1534.48 190.492C1534.45 190.482 1534.43 190.472 1534.39 190.472C1534.21 190.413 1533.38 190.751 1533.1 190.871C1533.04 190.901 1532.99 190.911 1532.99 190.911C1532.99 190.911 1535.58 194.069 1536.02 200.773Z" fill="#7EB76E"/>
<path d="M1566.46 209.47C1566.46 209.48 1566.46 209.49 1566.46 209.5C1570.6 207.866 1576.23 203.313 1573.75 194.806C1576.18 203.273 1570.59 207.766 1566.46 209.47Z" fill="#F0EEEF"/>
<path d="M1538.41 206.68C1539.05 206.74 1539.68 206.75 1540.45 206.82C1543.1 206.969 1546.27 207.109 1548.19 207.268C1548.48 207.268 1548.71 207.268 1548.93 207.268C1551.36 207.348 1557.7 207.348 1562.71 206.312C1562.86 207.706 1563 209.041 1563.16 210.436C1563.19 210.426 1563.21 210.426 1563.24 210.416C1562.75 205.495 1562.24 200.534 1561.72 195.543C1560.13 195.394 1558.97 195.105 1558.97 195.105C1558.97 195.105 1561.25 201.58 1554.26 201.152C1552.64 201.072 1551.53 200.494 1550.79 199.597C1552.64 199.966 1554.92 199.966 1555.95 198.641C1557.51 196.509 1555.37 192.226 1555.37 192.226C1555.37 192.226 1558.02 193.78 1561.63 194.288C1562.66 194.437 1563.84 194.437 1565.02 194.367C1566.78 194.148 1567.97 193.71 1568.77 193.182C1568.99 193.77 1568.92 194.288 1568.41 194.656C1567.59 195.244 1566.41 195.543 1565.17 195.613C1565.14 195.613 1565.12 195.613 1565.09 195.613C1565.48 199.239 1565.85 202.845 1566.2 206.451C1566.17 206.113 1566.14 205.754 1566.12 205.415C1566.71 205.266 1567.31 204.967 1567.75 204.678C1570.99 202.765 1572.98 197.525 1573.8 194.806C1572.35 189.924 1568.45 188.002 1564.23 187.573C1564.29 188.151 1564.36 188.729 1564.42 189.307C1563.26 188.629 1562.01 188.032 1560.88 187.613C1560.88 187.583 1560.87 187.554 1560.87 187.524C1560.82 187.524 1560.75 187.534 1560.69 187.534C1559.94 187.265 1559.25 187.075 1558.69 186.996C1556.12 186.647 1553.38 188.291 1551.6 189.745C1548.78 190.203 1542.3 189.347 1534.46 190.383C1534.49 190.413 1534.52 190.443 1534.55 190.472C1537.96 194.049 1539.08 201.132 1538.41 206.68Z" fill="#F0EEEF"/>
<path d="M1566.46 209.49C1566.46 209.48 1566.46 209.47 1566.46 209.46C1566.46 209.46 1566.45 209.46 1566.45 209.47C1566.34 208.483 1566.24 207.467 1566.16 206.451C1565.81 202.855 1565.44 199.239 1565.05 195.613C1563.89 195.682 1562.75 195.682 1561.74 195.533C1561.72 195.533 1561.71 195.533 1561.7 195.523C1562.23 200.514 1562.74 205.465 1563.22 210.396C1569.48 273.963 1572.24 331.423 1571.66 360.392C1571.64 361.209 1571.63 362.016 1571.61 362.783C1571.61 363.739 1572.35 364.476 1573.24 364.476C1573.68 364.476 1574.06 364.327 1574.35 364.068C1574.7 363.769 1574.93 363.341 1574.93 362.853C1575.71 334.541 1572.96 275.188 1566.46 209.49Z" fill="#686663"/>
<path d="M1564.37 189.307C1564.31 188.729 1564.24 188.151 1564.18 187.574C1563.35 179.903 1562.45 172.182 1561.51 164.452C1554.3 105.139 1544.2 45.1587 1530.94 1.187C1530.65 0.300392 1529.75 -0.207663 1528.88 0.0812312C1527.99 0.370125 1527.48 1.26669 1527.77 2.14334C1528.1 3.21922 1528.42 4.32499 1528.73 5.42079C1529.32 5.39091 1529.89 5.35106 1530.49 5.32117C1530.13 6.33728 1529.86 7.47293 1529.66 8.66836C1533.76 23.133 1537.55 39.1517 1541.04 56.1665C1541.78 57.4217 1542.52 58.5474 1543.25 59.5436C1542.85 59.5735 1542.36 59.6133 1541.75 59.6731C1548.32 92.4377 1553.8 128.739 1558.2 164.841C1559.13 172.431 1560.01 180.012 1560.82 187.544C1560.82 187.574 1560.83 187.603 1560.83 187.633C1561.96 188.032 1563.21 188.629 1564.37 189.307Z" fill="#686663"/>
<path d="M1541.03 56.1466C1534 44.2223 1527.4 21.7284 1529.65 8.64846C1529.86 7.45303 1530.13 6.32734 1530.48 5.30127C1529.88 5.33116 1529.31 5.371 1528.72 5.40089C1488.4 7.76185 1467.45 11.6171 1439.49 30.3454C1446.56 36.5317 1453.64 42.718 1460.64 48.9143C1457.47 49.0637 1450.7 64.9728 1451.58 77.5746C1465.12 71.7967 1528.38 61.0279 1541.74 59.6532C1542.34 59.5934 1542.84 59.5536 1543.24 59.5237C1542.51 58.5375 1541.77 57.4018 1541.03 56.1466Z" fill="#FDD78E"/>
<path d="M1453.24 249.995C1450.37 248.929 1448.35 246.169 1448.35 242.772V212.936C1448.35 208.294 1452.03 204.17 1456.66 203.801L1483.04 201.59C1484.14 201.49 1485.18 201.61 1486.14 201.919C1483.78 200.972 1477.59 199.329 1476.04 199.458L1449.66 201.67C1445.09 202.038 1441.34 206.162 1441.34 210.725V224.572V240.551V240.561C1441.35 244.884 1448.55 249.965 1453.24 249.995Z" fill="#CAC9CA"/>
<path d="M1483.05 201.58L1456.67 203.791C1452.03 204.16 1448.36 208.284 1448.36 212.926V242.762C1448.36 246.169 1450.38 248.929 1453.25 249.985C1454.29 250.373 1455.46 250.542 1456.67 250.423L1483.05 248.211C1487.63 247.843 1491.37 243.719 1491.37 239.076V236.616V221.115V209.231C1491.37 205.704 1489.19 202.865 1486.15 201.889C1485.19 201.6 1484.15 201.48 1483.05 201.58ZM1479.22 209.539C1479.3 208.653 1479.95 207.916 1480.77 207.916C1481.59 207.916 1482.33 208.573 1482.33 209.47V219.123C1482.33 220.009 1481.67 220.746 1480.77 220.746C1479.95 220.746 1479.22 220.089 1479.22 219.192V209.539ZM1460.51 219.422C1457.86 219.641 1455.72 217.728 1455.72 215.078C1455.72 212.428 1457.85 210.067 1460.51 209.848C1463.16 209.629 1465.3 211.542 1465.3 214.192C1465.29 216.841 1463.15 219.192 1460.51 219.422ZM1473.03 242.035C1471.12 242.184 1469.56 240.78 1469.56 238.867C1469.56 236.875 1471.12 235.181 1473.03 235.111C1474.94 234.962 1476.5 236.367 1476.5 238.279C1476.49 240.202 1474.94 241.886 1473.03 242.035ZM1478.11 219.422C1478.11 220.308 1477.45 221.045 1476.56 221.045C1475.74 221.045 1475 220.388 1475 219.491V209.838C1475 208.952 1475.74 208.214 1476.56 208.214C1477.37 208.214 1478.11 208.872 1478.11 209.769V219.422ZM1482.39 240.859C1480.47 241.009 1478.92 239.604 1478.92 237.692C1478.92 235.779 1480.47 234.085 1482.39 233.936C1484.3 233.787 1485.85 235.191 1485.85 237.104C1485.85 239.017 1484.3 240.71 1482.39 240.859ZM1485.11 207.557C1485.93 207.557 1486.67 208.214 1486.67 209.111V218.764C1486.67 219.651 1486.01 220.388 1485.11 220.388C1484.3 220.388 1483.56 219.73 1483.56 218.834V209.181C1483.56 208.294 1484.3 207.557 1485.11 207.557Z" fill="#DDDCDC"/>
<path d="M1460.51 209.838C1457.86 210.057 1455.72 212.418 1455.72 215.068C1455.72 217.718 1457.85 219.641 1460.51 219.412C1463.16 219.192 1465.3 216.832 1465.3 214.182C1465.29 211.532 1463.15 209.609 1460.51 209.838Z" fill="#5B5854"/>
<path d="M1482.39 233.926C1480.47 234.075 1478.92 235.769 1478.92 237.682C1478.92 239.594 1480.47 240.999 1482.39 240.85C1484.3 240.7 1485.85 239.007 1485.85 237.094C1485.85 235.191 1484.3 233.787 1482.39 233.926Z" fill="#5B5854"/>
<path d="M1473.03 235.112C1471.12 235.191 1469.56 236.875 1469.56 238.867C1469.56 240.78 1471.12 242.184 1473.03 242.035C1474.94 241.886 1476.5 240.192 1476.5 238.279C1476.49 236.377 1474.94 234.962 1473.03 235.112Z" fill="#B5B5B5"/>
<path d="M1445.25 248.152C1445.24 248.152 1445.23 248.152 1445.22 248.152C1444.79 249.895 1439.86 251.439 1439.35 259.199C1439.2 259.289 1439.04 259.379 1438.88 259.468C1438.83 265.276 1439.72 273.126 1439.72 273.126C1440.54 272.907 1445.83 270.476 1446.13 267.966C1446.17 267.508 1446.16 266.541 1446.13 265.296C1446.05 262.337 1445.81 257.725 1445.61 254.029C1445.41 250.722 1445.25 248.152 1445.25 248.152Z" fill="#CAC9CA"/>
<path d="M1423.29 258.313C1423.01 257.874 1422.78 257.456 1422.58 257.038C1422.68 261.67 1423.78 268.394 1425.13 269.958C1426.44 271.452 1431.93 272.449 1435.8 272.887C1435.89 272.897 1435.97 272.907 1436.06 272.917C1437.99 273.136 1439.46 273.196 1439.72 273.136C1439.72 273.136 1438.83 265.276 1438.88 259.478C1435.01 261.61 1426.34 263.134 1423.29 258.313Z" fill="#DDDCDC"/>
<path d="M1438.89 259.468C1439.05 259.379 1439.22 259.289 1439.36 259.199C1439.87 251.429 1444.8 249.885 1445.23 248.152C1445.24 248.122 1445.25 248.102 1445.26 248.072C1445.26 248.072 1439.84 247.823 1434.42 247.733C1429.23 247.644 1424.02 247.693 1423.59 248.231C1422.71 249.247 1420.5 252.644 1422.58 257.048C1422.78 257.466 1423 257.884 1423.29 258.323C1426.34 263.134 1435.01 261.61 1438.89 259.468ZM1427.78 255.892C1428.44 255.892 1429.11 256.709 1429.18 257.655C1429.33 258.612 1428.81 259.419 1428.15 259.419C1427.5 259.419 1426.83 258.602 1426.76 257.655C1426.68 256.699 1427.13 255.892 1427.78 255.892Z" fill="#B5B5B5"/>
<path d="M1426.31 157.887C1427.42 157.887 1428.3 156.931 1428.3 155.825C1428.3 154.719 1427.42 153.763 1426.31 153.763C1425.2 153.763 1424.32 154.719 1424.32 155.825C1424.33 156.931 1425.2 157.887 1426.31 157.887Z" fill="#F18200"/>
<path d="M1427.93 162.38C1427.93 161.643 1427.42 161.125 1426.68 161.125H1425.86C1425.2 161.125 1424.61 161.643 1424.61 162.38V169.901C1424.61 170.559 1425.12 171.156 1425.86 171.156H1426.68C1427.34 171.156 1427.93 170.638 1427.93 169.901V162.38Z" fill="#5B5854"/>
<path d="M1439.57 158.116C1440.16 172.262 1451.14 183.688 1464.11 183.688C1477.08 183.688 1487.17 172.272 1486.58 158.116C1485.99 143.96 1475 132.544 1462.04 132.544C1449.08 132.544 1438.99 144.04 1439.57 158.116ZM1478.85 162.31C1481.5 162.31 1483.05 165.478 1482.24 169.313C1481.42 173.218 1478.63 176.317 1475.97 176.317C1473.31 176.317 1471.77 173.149 1472.58 169.313C1473.32 165.478 1476.2 162.38 1478.85 162.31ZM1473.62 138.442C1477.16 141.022 1473.77 148.384 1470.23 146.839C1450.49 140.653 1445.55 163.705 1444.52 156.493C1444.23 150.306 1444.89 146.252 1449.31 141.609C1456.37 134.248 1466.4 135.493 1473.62 138.442Z" fill="#4C5151"/>
<path d="M1444.51 156.493C1445.54 163.705 1450.48 140.653 1470.22 146.839C1473.76 148.394 1477.15 141.022 1473.61 138.442C1466.4 135.493 1456.37 134.238 1449.29 141.609C1444.88 146.252 1444.22 150.306 1444.51 156.493Z" fill="#6A6E6E"/>
<path d="M1387.78 256.4C1387.86 253.9 1392.49 247.554 1395.67 238.499C1395.38 238.13 1395.08 237.841 1394.71 237.473C1393.16 235.998 1390.96 234.374 1388.44 232.9C1388.23 233.488 1387.71 235.032 1387.12 236.875C1385.5 241.816 1383 249.765 1382.78 251.24C1382.7 251.828 1391.17 264.13 1388.31 268.265C1387.42 269.52 1384.18 257.426 1380.42 260.455C1376.81 263.473 1377.25 271.353 1376.07 274.531C1375.72 283.018 1365.93 276.772 1363.06 272.219C1362.94 272.03 1362.83 271.841 1362.73 271.652C1363.99 275.626 1364.29 278.864 1371.79 280.418C1379.37 281.972 1380.34 269.37 1381.58 264.499C1381.95 263.314 1382.32 262.806 1383.06 262.806C1384.43 262.875 1387.14 272.219 1388.96 270.606C1389.19 270.396 1389.41 270.028 1389.61 269.44C1391.39 264.13 1387.71 258.612 1387.78 256.4Z" fill="#E3DFDE"/>
<path d="M1417.21 202.088C1417.19 201.978 1417.17 201.869 1417.15 201.749C1417.11 201.53 1417.06 201.301 1417.02 201.092C1416.12 196.828 1414.51 193.262 1412.46 192.086C1405.54 194.587 1412.09 214.779 1403.99 219.202C1400.6 221.045 1397.8 222.809 1395.59 224.213C1392.18 226.395 1390.24 227.929 1389.97 228.148C1389.94 228.168 1389.92 228.188 1389.92 228.188C1391.22 228.955 1392.41 229.762 1393.44 230.549C1394.78 231.565 1395.83 232.551 1396.33 233.338C1396.55 233.707 1396.7 233.996 1396.85 234.295C1396.89 234.384 1396.94 234.484 1396.96 234.593C1396.99 234.683 1397.03 234.773 1397.07 234.882C1397.09 234.862 1397.1 234.852 1397.11 234.843C1403.66 227.869 1410.85 222.868 1414.32 220.667C1414.33 220.657 1414.34 220.647 1414.35 220.637C1417.87 217.409 1418.45 209.021 1417.21 202.088Z" fill="#E3DFDE"/>
<path d="M1419.98 184.714C1420.01 184.724 1420.03 184.724 1420.07 184.734C1420.85 184.944 1421.64 185.093 1422.49 185.302C1423.52 185.521 1424.49 185.75 1425.51 185.96C1425.5 185.94 1425.5 185.93 1425.49 185.9C1425.34 185.322 1425.21 184.764 1425.06 184.266C1424.48 181.766 1423.96 179.325 1423.67 176.894C1423.38 175.43 1423.23 173.956 1423.08 172.491V172.481C1422.19 172.511 1421.25 172.511 1420.32 172.491C1420.25 172.491 1420.19 172.491 1420.12 172.481C1419.78 172.471 1419.46 172.451 1419.12 172.441C1418.57 172.412 1418.03 172.382 1417.49 172.342C1417.46 172.342 1417.43 172.342 1417.4 172.332C1417.62 174.155 1417.92 176.127 1418.35 178.1C1418.35 178.12 1418.36 178.13 1418.36 178.15C1418.8 180.291 1419.32 182.503 1419.98 184.714Z" fill="#E3DFDE"/>
<path d="M1424.33 151.93C1424.33 151.93 1424.55 151.85 1424.78 151.93C1424.79 151.91 1424.79 151.9 1424.8 151.87C1431 130.771 1450.66 121.058 1468.18 124.515C1468.17 124.515 1468.17 124.515 1468.16 124.505C1466.71 123.907 1465.21 123.419 1463.7 123.021C1463.57 122.991 1463.44 122.961 1463.31 122.931C1462.71 122.782 1462.11 122.652 1461.5 122.532C1461.33 122.503 1461.16 122.463 1460.99 122.443C1460.26 122.313 1459.53 122.204 1458.81 122.114C1458.78 122.114 1458.77 122.104 1458.74 122.104C1458.13 122.034 1457.52 121.985 1456.91 121.955C1456.86 121.955 1456.81 121.945 1456.76 121.945C1456.18 121.915 1455.57 121.895 1454.97 121.885C1454.91 121.885 1454.86 121.885 1454.8 121.885C1454.2 121.885 1453.61 121.895 1453.01 121.915C1452.97 121.915 1452.92 121.925 1452.88 121.925C1452.05 121.965 1451.24 122.034 1450.43 122.134C1438.2 123.578 1426.57 131.189 1420.73 144.429C1420.51 144.907 1420.3 145.395 1420.1 145.893C1420.05 146.023 1420.01 146.162 1419.95 146.292C1419.71 146.939 1419.47 147.616 1419.24 148.284C1419.23 148.314 1419.21 148.354 1419.21 148.384C1418.77 149.718 1418.38 151.093 1418.07 152.528C1418.07 152.548 1418.06 152.558 1418.05 152.577C1420.35 152.069 1422.78 151.85 1424.33 151.93Z" fill="#E3DFDE"/>
<path d="M1383 364.118H1383.3H1385.94C1386.09 363.829 1386.16 363.46 1386.31 363.161C1387.5 360.143 1389.33 356.238 1391.99 354.026C1396.63 350.121 1407.76 351.596 1409.09 351.526C1408.64 351.237 1408.27 350.938 1407.83 350.709C1406.21 350.191 1403.26 349.523 1399.51 349.085C1396.78 348.717 1395.02 348.717 1393.91 348.796C1393.26 348.946 1392.59 349.085 1392 349.384C1388.83 350.49 1386.26 352.333 1384.56 354.694C1384.42 354.893 1384.28 355.092 1384.16 355.291C1384.11 355.371 1384.07 355.441 1384.01 355.53C1383.79 355.909 1383.58 356.298 1383.41 356.696C1383.38 356.766 1383.34 356.835 1383.32 356.905C1383.23 357.104 1383.17 357.304 1383.11 357.503C1383.06 357.642 1383.02 357.782 1382.97 357.921C1382.89 358.18 1382.82 358.439 1382.76 358.698C1382.71 358.927 1382.67 359.157 1382.63 359.386C1382.6 359.535 1382.59 359.705 1382.57 359.854C1382.54 360.153 1382.52 360.452 1382.51 360.76C1382.51 360.82 1382.5 360.87 1382.5 360.92C1382.5 360.93 1382.5 360.95 1382.5 360.95C1382.5 361.019 1382.51 361.089 1382.51 361.159C1382.53 361.986 1382.67 362.783 1382.87 363.57C1382.89 363.739 1382.95 363.928 1383 364.118Z" fill="#E3DFDE"/>
<path d="M1391.97 349.314C1393.66 341.943 1400.37 335.388 1405.45 329.869C1405.9 329.421 1406.34 328.982 1406.7 328.544C1403.84 326.99 1401.84 325.595 1400.66 324.858C1400.21 324.569 1399.84 324.34 1399.63 324.27C1399.58 324.24 1399.55 324.24 1399.51 324.23C1399.44 324.201 1399.38 324.201 1399.33 324.201C1399.11 324.201 1388.43 344.832 1384.52 354.634C1384.52 354.624 1384.53 354.624 1384.53 354.614C1386.24 352.253 1388.82 350.42 1391.97 349.314Z" fill="#E3DFDE"/>
<path d="M1506.73 332.24C1508.38 331.841 1510.51 331.174 1513.15 330.088C1513.17 330.078 1513.18 330.078 1513.19 330.068C1513.19 330.058 1510.98 322.328 1503.25 314.149C1496.13 306.518 1485.3 295.54 1483.75 294.056C1483.74 294.046 1483.73 294.036 1483.72 294.026C1480.99 296.387 1477.9 298.449 1474.72 300.133C1474.73 300.143 1474.74 300.143 1474.75 300.153C1481.89 303.251 1485.85 308.77 1491.37 315.534C1495.35 320.395 1498.81 326.95 1502.35 332.847C1502.36 332.847 1502.38 332.847 1502.42 332.847C1502.47 332.837 1503.85 332.927 1506.73 332.24Z" fill="#E3DFDE"/>
<path d="M1553.26 360.88H1553.14L1523.88 360.073C1523.88 360.073 1525.43 353.737 1527.04 352.492C1528.67 351.167 1518.57 355.879 1518.57 355.879C1518.57 355.879 1514.51 357.354 1513.12 348.298C1513.04 347.412 1512.9 346.535 1512.83 345.648C1512.46 342.411 1512.54 339.313 1512.61 336.733C1512.69 335.856 1512.69 335.049 1512.76 334.322C1509.98 335.119 1507.21 335.706 1504.5 336.214C1504.05 336.294 1503.61 336.364 1503.18 336.434C1508.34 350.729 1505.31 363.849 1510.55 363.918C1511.37 363.998 1538.86 364.068 1551.85 363.849C1551.88 363.849 1551.92 363.849 1551.94 363.849C1553.04 363.749 1553.55 362.504 1553.26 360.88Z" fill="#E3DFDE"/>
<path d="M1421.03 334.392C1421.03 334.382 1421.03 334.362 1421.04 334.362C1421.07 334.252 1421.08 334.142 1421.08 334.063C1420.86 334.023 1420.66 333.973 1420.46 333.913C1420.31 333.874 1420.15 333.834 1419.97 333.774C1419.9 333.744 1419.83 333.734 1419.76 333.704C1419.74 333.694 1419.7 333.674 1419.67 333.674C1419.32 333.585 1418.98 333.485 1418.66 333.365C1418.53 333.336 1418.4 333.296 1418.28 333.266L1418.27 333.296L1417.46 336.075L1417.38 336.294L1414.65 345.499C1417.08 341.903 1419.67 337.739 1420.65 335.438C1420.73 335.248 1420.8 335.069 1420.86 334.91C1420.95 334.71 1421 334.541 1421.03 334.392Z" fill="#E3DFDE"/>
<path d="M1428.89 326.621C1437.07 317.337 1446.05 304.596 1448.7 300.91C1448.62 300.91 1446.64 298.698 1443.39 295.461C1441.33 300.471 1438.16 307.096 1433.89 313.143C1427.56 321.989 1421.58 328.026 1419.81 329.799C1420.47 330.217 1421.03 330.576 1421.44 330.895C1421.51 330.945 1421.58 330.994 1421.64 331.044C1421.67 331.064 1421.68 331.074 1421.71 331.094C1421.89 331.244 1422.01 331.383 1422.09 331.503C1422.11 331.532 1422.13 331.552 1422.14 331.582L1422.15 331.592C1422.17 331.632 1422.18 331.672 1422.18 331.702C1423.96 330.008 1426.98 328.823 1428.89 326.621Z" fill="#E3DFDE"/>
<path d="M1567.71 204.678C1567.26 204.967 1566.68 205.266 1566.08 205.415C1566.1 205.754 1566.13 206.113 1566.16 206.451C1566.24 207.467 1566.34 208.483 1566.45 209.47C1566.45 209.47 1566.46 209.47 1566.46 209.46C1570.59 207.766 1576.18 203.273 1573.75 194.806C1572.94 197.535 1570.95 202.765 1567.71 204.678Z" fill="#E3DFDE"/>
<path d="M1563.14 210.416C1562.99 209.021 1562.85 207.687 1562.69 206.292C1557.68 207.318 1551.34 207.318 1548.91 207.248C1548.69 207.248 1548.46 207.248 1548.17 207.248C1546.26 207.099 1543.09 206.959 1540.43 206.8C1539.67 206.73 1539.03 206.72 1538.39 206.66C1538.36 206.66 1538.32 206.65 1538.29 206.65C1538.07 208.643 1537.63 210.406 1536.97 211.731C1536.75 212.179 1536.52 212.548 1536.31 212.837C1536.39 212.837 1536.46 212.837 1536.53 212.837C1536.75 212.837 1536.9 212.757 1537.05 212.757C1537.07 212.757 1537.08 212.757 1537.1 212.747C1544.4 211.9 1554.61 212.339 1563.14 210.416C1563.14 210.426 1563.14 210.426 1563.14 210.416Z" fill="#E3DFDE"/>
<path d="M1499.48 210.346C1499.48 210.346 1519.23 213.285 1533.9 212.12C1533.93 212.12 1533.94 212.12 1533.97 212.11C1533.97 212.11 1535.07 210.048 1535.66 206.581C1535.66 206.581 1535.63 206.581 1535.59 206.581C1534.25 206.531 1512.03 205.714 1507.96 204.001C1505.94 203.214 1503.72 198.92 1501.97 194.746C1501.93 194.646 1501.88 194.527 1501.83 194.427C1502.35 199.827 1502.05 205.296 1499.55 210.187C1499.53 210.217 1499.52 210.237 1499.51 210.277C1499.5 210.307 1499.49 210.336 1499.48 210.346Z" fill="#E3DFDE"/>
<path d="M1568.37 194.656C1568.88 194.288 1568.95 193.77 1568.73 193.182C1567.92 193.7 1566.74 194.138 1564.98 194.368C1563.79 194.447 1562.62 194.447 1561.59 194.288C1557.99 193.77 1555.33 192.226 1555.33 192.226C1555.33 192.226 1557.46 196.499 1555.91 198.641C1554.89 199.966 1552.6 199.966 1550.75 199.597C1551.49 200.484 1552.6 201.072 1554.22 201.152C1561.22 201.6 1558.93 195.105 1558.93 195.105C1558.93 195.105 1560.09 195.394 1561.68 195.543C1561.7 195.543 1561.71 195.543 1561.72 195.553C1562.74 195.702 1563.88 195.702 1565.03 195.633C1565.06 195.633 1565.08 195.633 1565.11 195.633C1566.38 195.543 1567.55 195.244 1568.37 194.656Z" fill="#E3DFDE"/>
<path d="M1476.57 208.214C1475.75 208.214 1475.01 208.952 1475.01 209.838V219.491C1475.01 220.378 1475.75 221.045 1476.57 221.045C1477.45 221.045 1478.12 220.308 1478.12 219.422V209.769C1478.11 208.872 1477.37 208.214 1476.57 208.214Z" fill="#5B5854"/>
<path d="M1480.76 220.737C1481.65 220.737 1482.32 219.999 1482.32 219.113V209.46C1482.32 208.573 1481.58 207.906 1480.76 207.906C1479.94 207.906 1479.29 208.643 1479.21 209.529V219.182C1479.22 220.079 1479.95 220.737 1480.76 220.737Z" fill="#5B5854"/>
<path d="M1483.56 218.824C1483.56 219.71 1484.3 220.378 1485.11 220.378C1486 220.378 1486.67 219.641 1486.67 218.754V209.101C1486.67 208.215 1485.93 207.547 1485.11 207.547C1484.3 207.547 1483.56 208.284 1483.56 209.171V218.824Z" fill="#5B5854"/>
<path d="M1475.98 176.307C1478.63 176.307 1481.43 173.208 1482.25 169.303C1483.06 165.468 1481.51 162.3 1478.86 162.3C1476.21 162.38 1473.33 165.468 1472.59 169.303C1471.78 173.139 1473.32 176.307 1475.98 176.307Z" fill="#6A6E6E"/>
<path d="M1428.15 259.418C1428.81 259.418 1429.34 258.602 1429.18 257.655C1429.1 256.699 1428.44 255.892 1427.78 255.892C1427.13 255.892 1426.68 256.709 1426.76 257.655C1426.83 258.612 1427.5 259.418 1428.15 259.418Z" fill="#73716F"/>
<path d="M1494.1 260.893C1494.76 260.893 1495.43 260.076 1495.5 259.13C1495.57 258.173 1495.13 257.366 1494.47 257.366C1493.81 257.366 1493.14 258.183 1493.07 259.13C1492.92 260.086 1493.43 260.893 1494.1 260.893Z" fill="#73716F"/>
</svg>
