<svg width="355" height="96" viewBox="0 0 355 96" fill="none" xmlns="http://www.w3.org/2000/svg">
<path opacity="0.5" d="M46.5045 71.6571C46.5045 71.6571 77.4702 25.7589 130.146 27.6609C182.821 29.5629 163.978 74.0505 220.832 78.6954C247.907 80.9073 271.075 49.8308 295.597 35.5746C322.567 19.8948 348.549 24.2916 348.549 24.2916" stroke="#FDD78E"/>
<circle opacity="0.5" cx="349.749" cy="24.2961" r="4.78687" transform="rotate(4.67056 349.749 24.2961)" fill="#EBC780"/>
<path d="M1.02917 83.863C1.02917 83.863 28.1548 35.5957 80.8103 33.2023C133.466 30.8088 118.307 76.683 175.351 76.683C202.516 76.683 223.077 43.8232 246.356 27.6176C271.96 9.79386 298.214 12.0603 298.214 12.0603" stroke="#03AB5A"/>
<circle cx="299.411" cy="11.9672" r="4.78687" fill="#03AB5A"/>
</svg>
