<svg width="22" height="18" viewBox="0 0 22 18" fill="none" xmlns="http://www.w3.org/2000/svg">
<path d="M21.3345 2.32278C20.5499 2.65696 19.6961 2.89747 18.8167 2.99114C19.7298 2.45553 20.4135 1.60936 20.7397 0.611386C19.8829 1.11465 18.9443 1.46755 17.9655 1.65443C17.5564 1.22259 17.0616 0.878577 16.512 0.64381C15.9624 0.409044 15.3697 0.28856 14.7708 0.289866C12.3479 0.289866 10.3993 2.22911 10.3993 4.60887C10.3993 4.94304 10.4403 5.27722 10.507 5.59874C6.87904 5.4114 3.64335 3.7 1.49221 1.07974C1.10025 1.7408 0.894848 2.49348 0.897377 3.25949C0.897377 4.75823 1.66912 6.07976 2.84597 6.85697C2.15243 6.83 1.47514 6.64178 0.869174 6.30761V6.36077C0.869174 8.45951 2.37164 10.1988 4.37407 10.5988C3.99809 10.6952 3.61132 10.7445 3.22287 10.7456C2.93827 10.7456 2.66906 10.7177 2.39728 10.6798C2.95109 12.3912 4.5638 13.6342 6.48419 13.6747C4.98173 14.8367 3.0998 15.5203 1.05634 15.5203C0.689699 15.5203 0.351259 15.5076 0 15.4671C1.93833 16.695 4.23818 17.4038 6.71495 17.4038C14.7554 17.4038 19.1552 10.8266 19.1552 5.11773C19.1552 4.93039 19.1552 4.74304 19.1423 4.5557C19.9936 3.94051 20.7397 3.17848 21.3345 2.32278Z" fill="#03AB5A"/>
</svg>
