<svg width="1923" height="248" viewBox="0 0 1923 248" fill="none" xmlns="http://www.w3.org/2000/svg">
<path d="M1260.39 61.5822C1262.23 61.5002 1264.26 61.6552 1266.02 61.564C1326.15 61.1353 1393.36 47.2712 1467.28 40.3714C1633.35 8.05394 1647.36 -12.0682 1766.07 8.05398C1857.44 23.5413 1900.8 13.5439 1922.14 18.4199V243.197C1922.14 244.254 1918.26 247.104 1917.11 247.104H0C0.0498648 244.844 0.0897566 191.107 0 166.344C14.9495 170.399 39.0741 161.721 68.9131 169.796C112.345 181.563 107.668 177.835 145.665 182.575H145.665C146.367 182.657 172.034 185.673 180.112 181.572C183.682 179.758 187.641 178.71 191.7 178.282C200.746 177.325 214.568 175.11 218.218 175.01L392.536 164.711C395.757 164.62 398.978 164.738 402.18 165.075L534.76 178.874C542.24 179.649 578.073 170.562 585.592 170.298C587.298 170.234 588.774 170.061 590.08 169.796C590.27 169.76 590.459 169.733 590.639 169.687C590.798 169.651 590.938 169.596 591.097 169.56C591.785 169.377 592.404 169.177 592.982 168.94C593.431 168.748 593.86 168.557 594.239 168.338C594.279 168.32 594.319 168.302 594.349 168.283C594.638 168.11 594.907 167.937 595.156 167.746C595.216 167.7 595.276 167.664 595.326 167.618C595.565 167.427 595.795 167.235 596.004 167.026L596.005 167.025C596.024 166.998 596.044 166.971 596.064 166.953C596.253 166.752 596.433 166.552 596.592 166.342C596.622 166.297 596.662 166.251 596.692 166.205C596.852 165.987 597.001 165.75 597.141 165.513C597.171 165.467 597.191 165.413 597.221 165.367C597.34 165.13 597.45 164.902 597.55 164.656C597.56 164.629 597.57 164.61 597.58 164.583C597.68 164.328 597.769 164.064 597.839 163.79L597.85 163.756C597.866 163.706 597.881 163.66 597.889 163.608L597.89 163.605C597.949 163.333 598.009 163.06 598.049 162.779C598.049 162.733 598.058 162.696 598.058 162.66C598.088 162.396 598.118 162.131 598.128 161.858C598.128 161.803 598.138 161.749 598.138 161.694C598.148 161.393 598.148 161.101 598.138 160.801C598.138 160.737 598.128 160.673 598.128 160.609C598.118 160.318 598.088 160.017 598.058 159.716C598.049 159.698 598.049 159.68 598.049 159.661C598.009 159.342 597.969 159.023 597.909 158.704C597.889 158.641 597.879 158.568 597.869 158.495C597.81 158.177 597.74 157.86 597.671 157.543L597.67 157.538C597.66 157.483 597.64 157.438 597.63 157.383C597.56 157.091 597.48 156.79 597.4 156.49C597.38 156.435 597.37 156.371 597.35 156.316C597.261 155.988 597.161 155.66 597.061 155.332C597.041 155.259 597.011 155.186 596.991 155.113C596.882 154.776 596.772 154.439 596.652 154.102C596.533 153.765 596.403 153.427 596.273 153.081C596.253 153.008 596.224 152.935 596.194 152.862C596.074 152.525 595.934 152.197 595.805 151.869C595.785 151.814 595.755 151.75 595.735 151.696C595.615 151.395 595.486 151.085 595.356 150.784C595.326 150.729 595.306 150.684 595.286 150.629L595.281 150.616C595.143 150.292 595.005 149.969 594.857 149.645C594.827 149.563 594.787 149.49 594.757 149.417C593.112 145.735 591.347 142.29 590.629 139.82C590.579 139.637 590.539 139.464 590.499 139.291C590.479 139.218 590.459 139.136 590.439 139.063C590.369 138.744 590.329 138.434 590.31 138.161C589.98 132.619 600.721 136.593 650.377 167.345C650.766 167.591 651.244 167.709 651.713 167.673L849.108 153.81C849.158 153.801 849.198 153.801 849.247 153.801C853.685 153.801 858.123 153.537 862.521 153.017L1096.21 125.383C1096.27 125.373 1096.34 125.373 1096.4 125.364C1117.96 124.799 1139.18 120.397 1158.89 112.404L1202.65 94.6035C1202.77 94.567 1202.9 94.5305 1203.02 94.494C1208.56 93.3548 1212.31 91.4499 1214.72 89.4083C1215.29 88.9161 1216.09 88.7429 1216.83 88.9799C1219.23 89.7637 1222.64 90.3288 1224.53 91.5775C1224.72 91.541 1225.04 91.5137 1225.44 91.4863V91.4955H1225.53C1227.02 91.4134 1229.52 91.4317 1230.98 91.5046C1231.43 91.5319 1231.8 91.5592 1231.99 91.5957L1232 91.5866H1232.01C1232.14 91.3678 1232.32 91.1583 1232.51 90.9577C1233.16 90.2833 1234.05 89.6817 1234.83 89.0255L1234.84 89.0164C1234.99 88.8888 1235.13 88.7703 1235.26 88.6427C1235.28 88.6244 1235.29 88.6062 1235.31 88.588C1235.58 88.3237 1235.82 88.0594 1236 87.7677C1236.02 87.7677 1236.04 87.7677 1236.05 87.7495C1236.43 87.4305 1232.5 79.3096 1229.2 72.091C1227.63 68.6732 1226.21 65.4558 1225.45 63.3595C1225.37 63.1499 1225.3 62.9585 1225.24 62.7671C1225.21 62.6759 1225.18 62.5757 1225.15 62.4845C1224.81 61.3999 1224.75 60.7984 1225.14 60.9624C1226.43 59.6682 1256.67 63.2684 1259.3 61.8283C1259.62 61.646 1260.01 61.6004 1260.39 61.5822Z" fill="#F9F9F9"/>
<path d="M594.349 168.256C594.638 168.083 594.907 167.91 595.156 167.718C595.216 167.673 595.266 167.636 595.326 167.591C595.565 167.399 595.795 167.199 596.004 166.998C596.024 166.98 596.044 166.953 596.064 166.926C596.254 166.734 596.433 166.524 596.593 166.315C596.622 166.269 596.662 166.224 596.692 166.178C596.862 165.95 597.011 165.722 597.141 165.485C597.171 165.44 597.191 165.385 597.221 165.34C597.341 165.112 597.46 164.875 597.55 164.629C597.56 164.601 597.57 164.583 597.58 164.556C597.68 164.301 597.759 164.027 597.839 163.763C597.859 163.708 597.869 163.644 597.889 163.581C597.959 163.307 598.009 163.034 598.049 162.751C598.059 162.715 598.059 162.678 598.059 162.633C598.089 162.368 598.118 162.104 598.128 161.831C598.128 161.776 598.138 161.721 598.138 161.667C598.148 161.375 598.148 161.074 598.138 160.773C598.138 160.71 598.128 160.646 598.128 160.582C598.118 160.29 598.089 159.989 598.059 159.689C598.059 159.67 598.059 159.652 598.049 159.634C598.009 159.315 597.959 158.996 597.909 158.677C597.899 158.604 597.889 158.54 597.869 158.467C597.809 158.148 597.749 157.829 597.67 157.51C597.66 157.456 597.64 157.41 597.63 157.355C597.56 157.055 597.48 156.763 597.4 156.462C597.38 156.408 597.37 156.344 597.351 156.289C597.261 155.961 597.161 155.633 597.061 155.305C597.041 155.232 597.011 155.159 596.992 155.086C596.882 154.749 596.772 154.412 596.652 154.074C596.533 153.737 596.403 153.391 596.273 153.053C596.244 152.981 596.214 152.908 596.194 152.835C596.064 152.507 595.934 152.179 595.805 151.841C595.785 151.787 595.755 151.723 595.735 151.668C595.615 151.367 595.486 151.057 595.356 150.757C595.336 150.702 595.316 150.656 595.286 150.602C595.146 150.274 594.997 149.946 594.857 149.617C594.827 149.544 594.787 149.472 594.758 149.39C593.112 145.698 591.347 142.262 590.629 139.792C590.579 139.61 590.539 139.437 590.499 139.264V169.587C590.689 169.55 590.878 169.514 591.058 169.478C591.217 169.441 591.357 169.395 591.516 169.35C592.035 169.213 592.514 169.058 592.972 168.894C593.421 168.712 593.85 168.511 594.229 168.293C594.269 168.293 594.309 168.274 594.349 168.256Z" fill="#171C17"/>
<path d="M1230.97 91.5501C1231.43 91.5775 1231.79 91.6048 1231.98 91.6413L1231.99 91.6322H1232C1232.13 91.4134 1232.31 91.2038 1232.5 91.0033C1233.14 90.3288 1234.04 89.7182 1234.82 89.071L1234.83 89.0619C1234.97 88.9434 1235.11 88.8158 1235.25 88.6882C1235.27 88.67 1235.28 88.6518 1235.3 88.6335C1235.57 88.3783 1235.81 88.1049 1235.99 87.8133C1236.01 87.8133 1236.03 87.8133 1236.04 87.795C1236.42 87.476 1232.49 79.3552 1229.19 72.1366C1227.62 68.7187 1226.2 65.4923 1225.44 63.4051C1225.36 63.1955 1225.3 62.995 1225.23 62.8127L1225.51 91.5501C1227.01 91.459 1229.51 91.4772 1230.97 91.5501Z" fill="#171C17"/>
</svg>
